<?xml version="1.0" encoding="UTF-8"?>
<svg version="1.1" xmlns="http://www.w3.org/2000/svg" width="619" height="403">
<path d="M0 0 C7.99004143 2.91433724 14.17033611 2.71135305 22.29931641 -0.10986328 C23.70650693 -0.57060443 25.11406639 -1.03022015 26.52197266 -1.48876953 C27.2195166 -1.71967285 27.91706055 -1.95057617 28.63574219 -2.18847656 C64.43633177 -13.9790899 101.69541899 -9.81636815 135.22900391 6.91357422 C166.00875723 23.70876256 189.55067136 52.5544727 199.67431641 86.14013672 C210.27093451 122.73679028 204.43480799 159.14558443 186.57275391 192.10107422 C182.87876568 198.68643662 178.60728146 204.42416134 173.67431641 210.14013672 C172.86220703 211.10177734 172.05009766 212.06341797 171.21337891 213.05419922 C165.5801267 219.50489496 159.48544411 224.96249168 152.67431641 230.14013672 C151.93181641 230.72150391 151.18931641 231.30287109 150.42431641 231.90185547 C124.40708033 251.27927609 94.59172654 257.78754869 62.67431641 257.14013672 C61.10810547 257.13240234 61.10810547 257.13240234 59.51025391 257.12451172 C45.27000673 256.60936066 30.92496582 251.39521667 17.87744141 245.92529297 C9.69422717 243.91940753 2.31099074 247.10788759 -5.26318359 250.07763672 C-17.67492629 254.91259433 -29.08432157 256.63059739 -42.32568359 257.14013672 C-43.93443359 257.20394531 -43.93443359 257.20394531 -45.57568359 257.26904297 C-68.96562004 257.71655451 -90.95061115 252.6797225 -111.32568359 241.14013672 C-111.97794922 240.78016602 -112.63021484 240.42019531 -113.30224609 240.04931641 C-121.9395997 235.26066595 -129.17428321 230.01008664 -136.32568359 223.14013672 C-137.6132693 222.07269489 -138.9048121 221.01000425 -140.20068359 219.95263672 C-164.63885098 198.41557974 -178.80194342 166.30164238 -181.20117188 134.13818359 C-181.87370951 123.34593257 -181.17953235 112.842975 -179.62011719 102.171875 C-179.35013955 100.30889502 -179.11171516 98.44141342 -178.87646484 96.57373047 C-175.37920858 74.37483434 -163.74437727 54.01656227 -149.32568359 37.14013672 C-148.62443359 36.28162109 -147.92318359 35.42310547 -147.20068359 34.53857422 C-127.84513362 11.84811529 -96.8773978 -4.46868296 -67.32568359 -7.85986328 C-65.98376953 -8.04935547 -65.98376953 -8.04935547 -64.61474609 -8.24267578 C-42.3336905 -10.91640245 -20.95641088 -7.74810824 0 0 Z " fill="#EE2D64" transform="translate(297.32568359375,77.85986328125)"/>
<path d="M0 0 C0.92425781 0.33773437 1.84851563 0.67546875 2.80078125 1.0234375 C13.46602989 5.09326175 24.45497904 11.34405637 33 19 C33 19.66 33 20.32 33 21 C33.66 21 34.32 21 35 21 C35 21.66 35 22.32 35 23 C35.66 23 36.32 23 37 23 C38.9453125 25.1171875 38.9453125 25.1171875 41.125 27.875 C42.21167969 29.23238281 42.21167969 29.23238281 43.3203125 30.6171875 C45 33 45 33 45 35 C45.66 35 46.32 35 47 35 C53.74430267 47.09958022 60.01258757 59.10971533 62 73 C62.26490234 74.82337891 62.26490234 74.82337891 62.53515625 76.68359375 C65.67639071 102.42309717 59.2278121 124.65828186 45 146 C44.34 146 43.68 146 43 146 C42.74734375 146.56460938 42.4946875 147.12921875 42.234375 147.7109375 C33.32663721 164.22971707 11.96948968 175.05761465 -5.25 180.4375 C-7.16111852 180.97833684 -9.07716441 181.50242412 -11 182 C-11.56904053 182.1743457 -12.13808105 182.34869141 -12.72436523 182.52832031 C-17.89050609 183.59912646 -23.31362923 183.26689675 -28.5769043 183.29516602 C-30.04770619 183.30657007 -31.51847062 183.32683322 -32.98901367 183.35668945 C-46.60830968 183.63255841 -58.94355281 181.80805539 -71 175 C-72.74625163 174.11754307 -74.49645142 173.24286657 -76.25 172.375 C-79.16666667 170.91666667 -82.08333333 169.45833333 -85 168 C-85 167.34 -85 166.68 -85 166 C-85.78375 165.7525 -86.5675 165.505 -87.375 165.25 C-90.32317108 163.84610901 -90.9024777 162.99324263 -92 160 C-92.99 160 -93.98 160 -95 160 C-95 159.34 -95 158.68 -95 158 C-95.66 158 -96.32 158 -97 158 C-97 157.34 -97 156.68 -97 156 C-97.66 156 -98.32 156 -99 156 C-99 155.34 -99 154.68 -99 154 C-99.66 154 -100.32 154 -101 154 C-101 153.34 -101 152.68 -101 152 C-101.66 152 -102.32 152 -103 152 C-104.44526736 150.26451831 -105.8087222 148.46024037 -107.125 146.625 C-107.84945312 145.62726563 -108.57390625 144.62953125 -109.3203125 143.6015625 C-111 141 -111 141 -111 139 C-111.66 139 -112.32 139 -113 139 C-113.29003906 138.16855469 -113.29003906 138.16855469 -113.5859375 137.3203125 C-113.97652344 136.23363281 -113.97652344 136.23363281 -114.375 135.125 C-114.63023437 134.40570313 -114.88546875 133.68640625 -115.1484375 132.9453125 C-115.93877783 130.81842006 -115.93877783 130.81842006 -118 129 C-127.98374031 106.75362214 -129.46895609 80.26261003 -121.27734375 57.140625 C-114.63934426 40.81967213 -114.63934426 40.81967213 -111 39 C-111 38.01 -111 37.02 -111 36 C-110.34 36 -109.68 36 -109 36 C-108.71125 35.401875 -108.4225 34.80375 -108.125 34.1875 C-107 32 -107 32 -105 29 C-104.34 29 -103.68 29 -103 29 C-102.74089844 28.41347656 -102.48179687 27.82695312 -102.21484375 27.22265625 C-100.91475016 24.84402842 -99.51125162 23.31081607 -97.5625 21.4375 C-96.96566406 20.85871094 -96.36882812 20.27992188 -95.75390625 19.68359375 C-95.17511719 19.12800781 -94.59632813 18.57242188 -94 18 C-93.49339844 17.43410156 -92.98679688 16.86820313 -92.46484375 16.28515625 C-91 15 -91 15 -88 15 C-87.505 13.515 -87.505 13.515 -87 12 C-80.80977971 7.47766908 -73.67929689 4.26810482 -66.6875 1.1875 C-66.03064209 0.8977832 -65.37378418 0.60806641 -64.69702148 0.30957031 C-45.42820391 -7.94536907 -19.33797401 -7.84188188 0 0 Z " fill="#FEFDFE" transform="translate(281,113)"/>
<path d="M0 0 C7.99004143 2.91433724 14.17033611 2.71135305 22.29931641 -0.10986328 C23.70650693 -0.57060443 25.11406639 -1.03022015 26.52197266 -1.48876953 C27.2195166 -1.71967285 27.91706055 -1.95057617 28.63574219 -2.18847656 C64.43633177 -13.9790899 101.69541899 -9.81636815 135.22900391 6.91357422 C166.00875723 23.70876256 189.55067136 52.5544727 199.67431641 86.14013672 C210.27093451 122.73679028 204.43480799 159.14558443 186.57275391 192.10107422 C182.87876568 198.68643662 178.60728146 204.42416134 173.67431641 210.14013672 C172.86220703 211.10177734 172.05009766 212.06341797 171.21337891 213.05419922 C165.5801267 219.50489496 159.48544411 224.96249168 152.67431641 230.14013672 C151.93181641 230.72150391 151.18931641 231.30287109 150.42431641 231.90185547 C124.40708033 251.27927609 94.59172654 257.78754869 62.67431641 257.14013672 C61.10810547 257.13240234 61.10810547 257.13240234 59.51025391 257.12451172 C45.27000673 256.60936066 30.92496582 251.39521667 17.87744141 245.92529297 C9.69422717 243.91940753 2.31099074 247.10788759 -5.26318359 250.07763672 C-17.67492629 254.91259433 -29.08432157 256.63059739 -42.32568359 257.14013672 C-43.93443359 257.20394531 -43.93443359 257.20394531 -45.57568359 257.26904297 C-68.96562004 257.71655451 -90.95061115 252.6797225 -111.32568359 241.14013672 C-111.97794922 240.78016602 -112.63021484 240.42019531 -113.30224609 240.04931641 C-121.9395997 235.26066595 -129.17428321 230.01008664 -136.32568359 223.14013672 C-137.6132693 222.07269489 -138.9048121 221.01000425 -140.20068359 219.95263672 C-164.63885098 198.41557974 -178.80194342 166.30164238 -181.20117188 134.13818359 C-181.87370951 123.34593257 -181.17953235 112.842975 -179.62011719 102.171875 C-179.35013955 100.30889502 -179.11171516 98.44141342 -178.87646484 96.57373047 C-175.37920858 74.37483434 -163.74437727 54.01656227 -149.32568359 37.14013672 C-148.62443359 36.28162109 -147.92318359 35.42310547 -147.20068359 34.53857422 C-127.84513362 11.84811529 -96.8773978 -4.46868296 -67.32568359 -7.85986328 C-65.98376953 -8.04935547 -65.98376953 -8.04935547 -64.61474609 -8.24267578 C-42.3336905 -10.91640245 -20.95641088 -7.74810824 0 0 Z M-88.32568359 12.14013672 C-89.37755859 12.47529297 -90.42943359 12.81044922 -91.51318359 13.15576172 C-105.71409999 18.09823752 -119.95575708 27.2244246 -130.32568359 38.14013672 C-131.13585937 38.919375 -131.13585937 38.919375 -131.96240234 39.71435547 C-133.45484991 41.15114066 -134.89446514 42.64234996 -136.32568359 44.14013672 C-136.32568359 44.80013672 -136.32568359 45.46013672 -136.32568359 46.14013672 C-136.98568359 46.14013672 -137.64568359 46.14013672 -138.32568359 46.14013672 C-138.32568359 46.80013672 -138.32568359 47.46013672 -138.32568359 48.14013672 C-138.98568359 48.14013672 -139.64568359 48.14013672 -140.32568359 48.14013672 C-143.28804054 51.7733736 -143.28804054 51.7733736 -144.32568359 56.14013672 C-144.98568359 56.14013672 -145.64568359 56.14013672 -146.32568359 56.14013672 C-158.83361458 78.00400009 -166.73199562 98.64419757 -166.70068359 124.20263672 C-166.70080444 124.88411774 -166.70092529 125.56559875 -166.7010498 126.26773071 C-166.67314581 137.3389646 -165.60170487 147.53260576 -162.32568359 158.14013672 C-161.85775391 159.785625 -161.85775391 159.785625 -161.38037109 161.46435547 C-157.74414928 173.39666318 -151.59073028 184.9952517 -144.32568359 195.14013672 C-143.66568359 195.14013672 -143.00568359 195.14013672 -142.32568359 195.14013672 C-142.11943359 195.82076172 -141.91318359 196.50138672 -141.70068359 197.20263672 C-139.01683867 202.93630543 -134.50623699 207.54253019 -129.32568359 211.14013672 C-128.66568359 211.14013672 -128.00568359 211.14013672 -127.32568359 211.14013672 C-127.10396484 211.71248047 -126.88224609 212.28482422 -126.65380859 212.87451172 C-118.67002549 226.49390642 -94.58321338 235.37497574 -80.02099609 239.36279297 C-71.8444271 241.46252714 -63.78338973 242.89327474 -55.32568359 243.14013672 C-54.08302734 243.18009766 -52.84037109 243.22005859 -51.56005859 243.26123047 C-35.1353536 243.61167224 -18.81902219 241.29201564 -3.51318359 235.20263672 C-2.54529907 234.8208728 -2.54529907 234.8208728 -1.55786133 234.43139648 C1.83581273 233.0458188 4.66068279 231.47273384 7.61181641 229.32763672 C11.5083312 227.79379594 13.73855139 228.63704446 17.5847168 230.22924805 C20.34537495 231.47788606 23.05441486 232.81214679 25.75756836 234.18017578 C31.33697272 236.97449726 36.81079731 238.88070445 42.86181641 240.26513672 C43.60939209 240.4369043 44.35696777 240.60867188 45.12719727 240.78564453 C51.30577065 242.15232135 57.34131703 242.95529029 63.67431641 243.14013672 C64.91697266 243.18009766 66.15962891 243.22005859 67.43994141 243.26123047 C87.99547999 243.69980877 109.37112533 239.87389482 127.67431641 230.14013672 C127.67431641 229.48013672 127.67431641 228.82013672 127.67431641 228.14013672 C128.21056641 228.03701172 128.74681641 227.93388672 129.29931641 227.82763672 C132.29933684 226.95920975 134.9122699 225.58393375 137.67431641 224.14013672 C137.67431641 223.48013672 137.67431641 222.82013672 137.67431641 222.14013672 C138.81900391 221.70701172 138.81900391 221.70701172 139.98681641 221.26513672 C142.82460948 220.17744659 142.82460948 220.17744659 145.67431641 218.14013672 C145.67431641 217.48013672 145.67431641 216.82013672 145.67431641 216.14013672 C146.25181641 215.87201172 146.82931641 215.60388672 147.42431641 215.32763672 C149.72981683 214.11084483 151.69487833 212.83679793 153.67431641 211.14013672 C153.67431641 210.48013672 153.67431641 209.82013672 153.67431641 209.14013672 C154.33431641 209.14013672 154.99431641 209.14013672 155.67431641 209.14013672 C155.67431641 208.48013672 155.67431641 207.82013672 155.67431641 207.14013672 C156.66431641 206.81013672 157.65431641 206.48013672 158.67431641 206.14013672 C160.33331315 204.58166528 160.33331315 204.58166528 161.86181641 202.70263672 C162.39162109 202.08517578 162.92142578 201.46771484 163.46728516 200.83154297 C164.8679439 199.2151287 164.8679439 199.2151287 164.67431641 197.14013672 C165.33431641 197.14013672 165.99431641 197.14013672 166.67431641 197.14013672 C168.26971581 195.22997711 168.26971581 195.22997711 169.79931641 192.82763672 C170.60755859 191.626875 170.60755859 191.626875 171.43212891 190.40185547 C172.91501423 188.13194966 172.91501423 188.13194966 172.67431641 185.14013672 C173.33431641 185.14013672 173.99431641 185.14013672 174.67431641 185.14013672 C191.60233261 150.46235595 195.06218687 117.36080342 182.44775391 80.56201172 C179.80952474 73.37922004 176.52708262 66.74677018 172.67431641 60.14013672 C172.01431641 60.14013672 171.35431641 60.14013672 170.67431641 60.14013672 C170.01431641 58.16013672 169.35431641 56.18013672 168.67431641 54.14013672 C168.01431641 54.14013672 167.35431641 54.14013672 166.67431641 54.14013672 C166.39974609 53.56005859 166.12517578 52.97998047 165.84228516 52.38232422 C162.50252276 45.970874 157.67123164 40.22051203 151.67431641 36.14013672 C151.01431641 36.14013672 150.35431641 36.14013672 149.67431641 36.14013672 C149.42681641 35.54201172 149.17931641 34.94388672 148.92431641 34.32763672 C147.49359115 31.82386753 146.1051582 30.65941284 143.67431641 29.14013672 C143.01431641 29.14013672 142.35431641 29.14013672 141.67431641 29.14013672 C141.67431641 28.48013672 141.67431641 27.82013672 141.67431641 27.14013672 C139.69431641 26.48013672 137.71431641 25.82013672 135.67431641 25.14013672 C135.67431641 24.48013672 135.67431641 23.82013672 135.67431641 23.14013672 C104.81746438 6.77728383 71.2838057 -0.29336428 37.05664062 9.9621582 C31.17068071 11.83656827 25.53337816 14.20670636 19.93798828 16.81665039 C12.91741806 20.07894612 12.91741806 20.07894612 9.67431641 20.14013672 C7.93619666 19.22823586 6.20107735 18.302778 4.53955078 17.2578125 C1.5013744 15.43729267 -1.75649045 14.28490989 -5.07568359 13.07763672 C-5.77814209 12.82014648 -6.48060059 12.56265625 -7.2043457 12.29736328 C-34.10640859 2.5797359 -61.34429756 3.18958077 -88.32568359 12.14013672 Z " fill="#FDFCFD" transform="translate(297.32568359375,77.85986328125)"/>
<path d="M0 0 C3.63 0 7.26 0 11 0 C10.57203125 1.51980469 10.1440625 3.03960937 9.703125 4.60546875 C7.83474727 11.46092731 6.28772128 18.37666746 4.75 25.3125 C4.14108381 28.0394581 3.52982295 30.76588724 2.91796875 33.4921875 C2.6846006 34.53290657 2.6846006 34.53290657 2.44651794 35.59465027 C0.69543644 43.38574285 -1.11720582 51.1623344 -2.9375 58.9375 C-3.09279175 59.60109528 -3.2480835 60.26469055 -3.40808105 60.94839478 C-4.27049895 64.63262888 -5.13448503 68.31649231 -6 72 C-9.63 72 -13.26 72 -17 72 C-16.17796094 66.53479526 -14.93541025 61.19200499 -13.6875 55.8125 C-12.21296232 49.41504615 -10.77919307 43.01588944 -9.47338867 36.58178711 C-7.44245112 26.57792709 -4.84800155 16.79947017 -2 7 C-1.33144126 4.66720362 -0.66586112 2.33356834 0 0 Z " fill="#E22C5E" transform="translate(253,160)"/>
<path d="M0 0 C4.62 0 9.24 0 14 0 C13.34 1.32 12.68 2.64 12 4 C11.34 4 10.68 4 10 4 C10 4.66 10 5.32 10 6 C9.34 6 8.68 6 8 6 C8 6.66 8 7.32 8 8 C7.34 8 6.68 8 6 8 C5.67 8.99 5.34 9.98 5 11 C4.34 11 3.68 11 3 11 C2.13641377 12.78141747 2.13641377 12.78141747 2 15 C3.89586384 17.14589423 3.89586384 17.14589423 6 19 C6 19.66 6 20.32 6 21 C6.66 21 7.32 21 8 21 C8 21.66 8 22.32 8 23 C8.61875 23.2475 9.2375 23.495 9.875 23.75 C12 25 12 25 14 29 C9.38 29 4.76 29 0 29 C0 28.34 0 27.68 0 27 C-0.66 27 -1.32 27 -2 27 C-2 26.34 -2 25.68 -2 25 C-2.66 25 -3.32 25 -4 25 C-5.5078125 23.5390625 -5.5078125 23.5390625 -7.125 21.625 C-7.66382813 20.99851563 -8.20265625 20.37203125 -8.7578125 19.7265625 C-10 18 -10 18 -10 16 C-10.66 16 -11.32 16 -12 16 C-11.34 14.35 -10.68 12.7 -10 11 C-9.34 11 -8.68 11 -8 11 C-7.7525 10.443125 -7.505 9.88625 -7.25 9.3125 C-5.77075182 6.57589087 -4.06532561 4.32349131 -2 2 C-1.34 2 -0.68 2 0 2 C0 1.34 0 0.68 0 0 Z " fill="#E82D62" transform="translate(221,183)"/>
<path d="M0 0 C11.11447547 -1.21988145 11.11447547 -1.21988145 15.64453125 1.7109375 C17.6563518 3.71913315 19.42656007 5.63270971 21 8 C21 8.66 21 9.32 21 10 C21.66 10 22.32 10 23 10 C23 10.66 23 11.32 23 12 C23.66 12 24.32 12 25 12 C25 12.66 25 13.32 25 14 C25.66 14.33 26.32 14.66 27 15 C25.71034824 16.37562854 24.37310707 17.70766393 23 19 C22.34 19 21.68 19 21 19 C21 19.66 21 20.32 21 21 C20.34 21 19.68 21 19 21 C18.7525 21.5775 18.505 22.155 18.25 22.75 C16.74962249 25.45067952 15.42401412 27.06078871 13 29 C9.765625 29.390625 9.765625 29.390625 6.25 29.25 C5.07953125 29.21390625 3.9090625 29.1778125 2.703125 29.140625 C1.81109375 29.09421875 0.9190625 29.0478125 0 29 C0 28.34 0 27.68 0 27 C0.66 27 1.32 27 2 27 C2 26.34 2 25.68 2 25 C2.66 25 3.32 25 4 25 C4.226875 24.2575 4.45375 23.515 4.6875 22.75 C6 20 6 20 8.625 17.9375 C9.40875 17.298125 10.1925 16.65875 11 16 C11 14.68 11 13.36 11 12 C10.34 12 9.68 12 9 12 C7.2734375 10.3203125 7.2734375 10.3203125 5.375 8.125 C4.74335938 7.40570313 4.11171875 6.68640625 3.4609375 5.9453125 C2 4 2 4 2 2 C1.34 2 0.68 2 0 2 C0 1.34 0 0.68 0 0 Z " fill="#E33062" transform="translate(264,183)"/>
<path d="M0 0 C0.33 0 0.66 0 1 0 C1 2.97 1 5.94 1 9 C4.87797662 9.43386092 4.87797662 9.43386092 6.75 7.5 C7.1625 7.005 7.575 6.51 8 6 C8.9867097 9.11074833 8.96838493 11.16442757 8.22265625 14.328125 C7.94711914 15.52695313 7.94711914 15.52695313 7.66601562 16.75 C7.46685547 17.575 7.26769531 18.4 7.0625 19.25 C6.86720703 20.09046875 6.67191406 20.9309375 6.47070312 21.796875 C5.98857714 23.86648898 5.49536137 25.93351395 5 28 C1.37 28 -2.26 28 -6 28 C-5.12960972 22.13737124 -3.76677492 16.3963617 -2.4375 10.625 C-2.20353516 9.60277344 -1.96957031 8.58054688 -1.72851562 7.52734375 C-1.1539152 5.01786434 -0.57769775 2.50876786 0 0 Z " fill="#DE2C5D" transform="translate(242,204)"/>
<path d="M0 0 C2.31 0 4.62 0 7 0 C9.21474076 5.04468729 8.85072153 7.85910687 7 13 C5.68 12.67 4.36 12.34 3 12 C2.34 13.98 1.68 15.96 1 18 C0.01 17.67 -0.98 17.34 -2 17 C-2.25287193 10.93107371 -1.69832609 5.83799592 0 0 Z " fill="#EF2D64" transform="translate(252,161)"/>
<path d="M0 0 C2.31 0.66 4.62 1.32 7 2 C7 6.1274515 6.54466387 9.915021 6 14 C5.01 14.33 4.02 14.66 3 15 C2.67 15.99 2.34 16.98 2 18 C1.01 18.33 0.02 18.66 -1 19 C-1.66 18.34 -2.32 17.68 -3 17 C-2.9765625 14.8359375 -2.9765625 14.8359375 -2.625 12.375 C-2.51414063 11.55773437 -2.40328125 10.74046875 -2.2890625 9.8984375 C-2.19367188 9.27195313 -2.09828125 8.64546875 -2 8 C-1.67 8.66 -1.34 9.32 -1 10 C-0.34 9.67 0.32 9.34 1 9 C0.67 8.34 0.34 7.68 0 7 C0.66 6.34 1.32 5.68 2 5 C1.34 4.67 0.68 4.34 0 4 C0 2.68 0 1.36 0 0 Z " fill="#F12C65" transform="translate(245,196)"/>
<path d="M0 0 C0.33 0 0.66 0 1 0 C1 1.98 1 3.96 1 6 C0.34 6 -0.32 6 -1 6 C-1.14308594 6.88816406 -1.28617188 7.77632812 -1.43359375 8.69140625 C-1.76073149 10.60234189 -2.1136082 12.509993 -2.53515625 14.40234375 C-4.23360384 22.56747327 -4.14710387 30.60362616 -4.01391602 38.90209961 C-3.94523708 43.73360179 -3.96102978 48.24812069 -5 53 C-5.33 53 -5.66 53 -6 53 C-8.92036394 35.66471963 -7.51035181 17.34633789 -1 1 C-0.67 0.67 -0.34 0.34 0 0 Z " fill="#FEE6F5" transform="translate(162,166)"/>
<path d="M0 0 C4.62 0 9.24 0 14 0 C13.67 0.99 13.34 1.98 13 3 C9.37 3 5.74 3 2 3 C2.33 4.32 2.66 5.64 3 7 C2.01 8.485 2.01 8.485 1 10 C0.34 10 -0.32 10 -1 10 C-1 9.01 -1 8.02 -1 7 C-1.99 7.99 -2.98 8.98 -4 10 C-3.67 10.33 -3.34 10.66 -3 11 C-4.25 12.5625 -4.25 12.5625 -6 14 C-8.1875 13.6875 -8.1875 13.6875 -10 13 C-10 12.34 -10 11.68 -10 11 C-9.34 11 -8.68 11 -8 11 C-7.7525 10.443125 -7.505 9.88625 -7.25 9.3125 C-5.77075182 6.57589087 -4.06532561 4.32349131 -2 2 C-1.34 2 -0.68 2 0 2 C0 1.34 0 0.68 0 0 Z " fill="#DB2B5C" transform="translate(221,183)"/>
<path d="M0 0 C0.66 0.33 1.32 0.66 2 1 C1.78670044 1.92026978 1.78670044 1.92026978 1.5690918 2.85913086 C-0.01661743 10.45011471 -0.27759815 17.78420497 -0.20581055 25.52514648 C-0.18749447 27.5631158 -0.18530218 29.60062846 -0.18554688 31.63867188 C-0.15392405 38.8170529 0.0812331 45.87717766 1 53 C0.34 53 -0.32 53 -1 53 C-1.06058594 52.38511719 -1.12117187 51.77023438 -1.18359375 51.13671875 C-1.26738281 50.32847656 -1.35117188 49.52023438 -1.4375 48.6875 C-1.51871094 47.88699219 -1.59992188 47.08648437 -1.68359375 46.26171875 C-1.95265693 43.83912821 -1.95265693 43.83912821 -3 41 C-3.04022143 38.15548187 -3.0223914 35.34186013 -2.94921875 32.5 C-2.9303511 31.66791016 -2.91148346 30.83582031 -2.89204407 29.97851562 C-2.85018946 28.21998301 -2.80545481 26.46151693 -2.75805664 24.703125 C-2.68777537 22.01054967 -2.63347465 19.3179565 -2.58007812 16.625 C-2.53743526 14.916642 -2.4938472 13.20830728 -2.44921875 11.5 C-2.43453049 10.69369141 -2.41984222 9.88738281 -2.40470886 9.05664062 C-2.28661763 5.21758151 -2.17656519 3.26484778 0 0 Z " fill="#FEE4F5" transform="translate(132,175)"/>
<path d="M0 0 C0.66 0.33 1.32 0.66 2 1 C1.67 2.32 1.34 3.64 1 5 C0.360625 5.12375 -0.27875 5.2475 -0.9375 5.375 C-1.618125 5.58125 -2.29875 5.7875 -3 6 C-3.33 6.66 -3.66 7.32 -4 8 C-3.34 8 -2.68 8 -2 8 C-2 8.99 -2 9.98 -2 11 C-3.11375 11.268125 -4.2275 11.53625 -5.375 11.8125 C-9.21840951 12.65809019 -9.21840951 12.65809019 -11 16 C-13.125 16.6875 -13.125 16.6875 -15 17 C-15 16.34 -15 15.68 -15 15 C-14.34 15 -13.68 15 -13 15 C-13 14.34 -13 13.68 -13 13 C-12.34 13 -11.68 13 -11 13 C-10.75378906 12.41476563 -10.50757813 11.82953125 -10.25390625 11.2265625 C-8.80626232 8.65597983 -7.20757518 7.24544307 -4.9375 5.375 C-2.02124288 3.04514448 -2.02124288 3.04514448 0 0 Z " fill="#DB2C5D" transform="translate(172,111)"/>
<path d="M0 0 C0.99 0 1.98 0 3 0 C3.33 0.66 3.66 1.32 4 2 C6.12534659 1.85930804 8.25027529 1.71229079 10.375 1.5625 C11.55835938 1.48128906 12.74171875 1.40007812 13.9609375 1.31640625 C16.91518901 1.18915064 16.91518901 1.18915064 19 0 C20.99960012 -0.039992 23.00047242 -0.04346799 25 0 C25 0.66 25 1.32 25 2 C24.00742188 2.08636719 23.01484375 2.17273438 21.9921875 2.26171875 C13.30421188 3.12535386 5.7966348 4.79862716 -2.3046875 8.07421875 C-3.19414062 8.37972656 -4.08359375 8.68523437 -5 9 C-5.66 8.67 -6.32 8.34 -7 8 C-4.77810176 5.77810176 -2.91517292 5.07401108 0 4 C0 2.68 0 1.36 0 0 Z " fill="#C72952" transform="translate(220,106)"/>
<path d="M0 0 C0.144375 0.78375 0.28875 1.5675 0.4375 2.375 C0.87798925 4.96421018 0.87798925 4.96421018 2 7 C-2.29 7 -6.58 7 -11 7 C-11 6.34 -11 5.68 -11 5 C-10.34 5 -9.68 5 -9 5 C-9 4.34 -9 3.68 -9 3 C-8.34 3 -7.68 3 -7 3 C-7 2.34 -7 1.68 -7 1 C-4.53721199 -0.231394 -2.7204945 -0.07159196 0 0 Z " fill="#E0285B" transform="translate(275,205)"/>
<path d="M0 0 C-2.35953094 2.35953094 -3.77895617 2.49141413 -7 3 C-7.33 2.01 -7.66 1.02 -8 0 C-16.91 0 -25.82 0 -35 0 C-35 -0.33 -35 -0.66 -35 -1 C-23.57382694 -3.69485214 -11.43161653 -1.8160866 0 0 Z " fill="#C12850" transform="translate(391,85)"/>
<path d="M0 0 C3.74438824 0.73270755 7.41024756 0.67301544 11.20703125 0.62890625 C12.31788086 0.62213867 12.31788086 0.62213867 13.45117188 0.61523438 C15.26566024 0.603528 17.08010659 0.58559523 18.89453125 0.56640625 C19.22453125 1.55640625 19.55453125 2.54640625 19.89453125 3.56640625 C22.86453125 4.06140625 22.86453125 4.06140625 25.89453125 4.56640625 C25.89453125 4.89640625 25.89453125 5.22640625 25.89453125 5.56640625 C24.98574219 5.42332031 24.07695312 5.28023438 23.140625 5.1328125 C17.76856331 4.36537512 12.36286702 3.95690925 6.95703125 3.50390625 C5.89162109 3.41302734 4.82621094 3.32214844 3.72851562 3.22851562 C1.11733279 3.00603816 -1.4939905 2.7853841 -4.10546875 2.56640625 C-4.10546875 1.90640625 -4.10546875 1.24640625 -4.10546875 0.56640625 C-2.10546875 -0.43359375 -2.10546875 -0.43359375 0 0 Z " fill="#C8305A" transform="translate(251.10546875,105.43359375)"/>
<path d="M0 0 C-1 1 -1 1 -3.72265625 1.09765625 C-5.37587891 1.08025391 -5.37587891 1.08025391 -7.0625 1.0625 C-8.16722656 1.05347656 -9.27195312 1.04445313 -10.41015625 1.03515625 C-11.26480469 1.02355469 -12.11945313 1.01195312 -13 1 C-13 1.66 -13 2.32 -13 3 C-15.24784424 3.24942657 -17.49847506 3.47383488 -19.75 3.6875 C-21.00296875 3.81511719 -22.2559375 3.94273437 -23.546875 4.07421875 C-27.3718871 3.99200695 -28.18163245 3.36213755 -31 1 C-26.5841377 0.63528513 -22.16724379 0.28504964 -17.75 -0.0625 C-16.49574219 -0.16626953 -15.24148438 -0.27003906 -13.94921875 -0.37695312 C-12.14130859 -0.51713867 -12.14130859 -0.51713867 -10.296875 -0.66015625 C-9.18666992 -0.74918213 -8.07646484 -0.83820801 -6.93261719 -0.92993164 C-4.34031025 -0.99186904 -2.44585704 -0.79360255 0 0 Z " fill="#FEE9F4" transform="translate(273,320)"/>
<path d="M0 0 C1.98 0 3.96 0 6 0 C8.22656164 4.74354436 9.46148032 8.72250715 10 14 C9.34 14 8.68 14 8 14 C4.04 7.07 4.04 7.07 0 0 Z " fill="#EC2C63" transform="translate(145,259)"/>
<path d="M0 0 C1.12021236 3.37534447 0.85975332 5.66221412 0.07421875 9.10546875 C-0.14556641 10.08966797 -0.36535156 11.07386719 -0.59179688 12.08789062 C-0.82962891 13.11076172 -1.06746094 14.13363281 -1.3125 15.1875 C-1.6518457 16.69280273 -1.6518457 16.69280273 -1.99804688 18.22851562 C-2.44543253 20.21016334 -2.89860625 22.19051431 -3.35791016 24.16943359 C-3.77569922 26.0112003 -4.17238863 27.85792335 -4.54443359 29.70947266 C-4.97085977 31.81905014 -5.47750225 33.91214164 -6 36 C-6.99 36.495 -6.99 36.495 -8 37 C-7.37428442 28.90094909 -5.46569792 21.28923649 -3.4375 13.4375 C-3.10426583 12.12969779 -2.77157937 10.82175589 -2.43945312 9.51367188 C-1.6316604 6.34103669 -0.81838245 3.1699169 0 0 Z " fill="#FEE2EF" transform="translate(259,177)"/>
<path d="M0 0 C0.33 0.99 0.66 1.98 1 3 C1.99 3.66 2.98 4.32 4 5 C3.67 6.32 3.34 7.64 3 9 C1.35 9.33 -0.3 9.66 -2 10 C-2.99 7.03 -3.98 4.06 -5 1 C-3 0 -3 0 0 0 Z " fill="#F22D66" transform="translate(278,185)"/>
<path d="M0 0 C0.99 0.33 1.98 0.66 3 1 C4.39439664 1.06665376 5.79169875 1.08538199 7.1875 1.0625 C8.445625 1.041875 9.70375 1.02125 11 1 C11 1.66 11 2.32 11 3 C12.65 2.67 14.3 2.34 16 2 C16.33 4.31 16.66 6.62 17 9 C13.21283842 7.49637741 9.44754813 5.94512999 5.6875 4.375 C4.08455078 3.70597656 4.08455078 3.70597656 2.44921875 3.0234375 C1.23685547 2.51683594 1.23685547 2.51683594 0 2 C0 1.34 0 0.68 0 0 Z " fill="#DB3362" transform="translate(279,111)"/>
<path d="M0 0 C2.85423192 -0.02718316 5.70820015 -0.04692705 8.5625 -0.0625 C9.36236328 -0.07087891 10.16222656 -0.07925781 10.98632812 -0.08789062 C18.32794882 -0.11785642 24.98960227 0.85395988 32 3 C32 3.33 32 3.66 32 4 C28.17202208 4.06715751 24.66319547 4.10611127 20.875 3.5 C16.07692603 2.88089368 11.39312171 2.892289 6.5625 2.9375 C5.64017578 2.94201172 4.71785156 2.94652344 3.76757812 2.95117188 C1.51164952 2.96286062 -0.74413967 2.97924545 -3 3 C-2.01 2.67 -1.02 2.34 0 2 C0 1.34 0 0.68 0 0 Z " fill="#FEE4F1" transform="translate(241,81)"/>
<path d="M0 0 C1.98 0.66 3.96 1.32 6 2 C6 3.65 6 5.3 6 7 C3.03 7 0.06 7 -3 7 C-3.33 6.34 -3.66 5.68 -4 5 C-3.525625 4.54625 -3.05125 4.0925 -2.5625 3.625 C-0.90972192 2.06741796 -0.90972192 2.06741796 0 0 Z " fill="#EF2861" transform="translate(240,224)"/>
<path d="M0 0 C0.66 0 1.32 0 2 0 C2.33 7.26 2.66 14.52 3 22 C2.01 22.33 1.02 22.66 0 23 C0 15.41 0 7.82 0 0 Z " fill="#D33865" transform="translate(153,192)"/>
<path d="M0 0 C0.66 0 1.32 0 2 0 C2 0.66 2 1.32 2 2 C5.3 1.34 8.6 0.68 12 0 C11.67 0.66 11.34 1.32 11 2 C8.28651242 2.81345251 5.63253812 3.50247885 2.875 4.125 C2.12734375 4.30675781 1.3796875 4.48851562 0.609375 4.67578125 C-4.04143545 5.75340806 -8.22878057 6.18983632 -13 6 C-13 5.67 -13 5.34 -13 5 C-12.030625 4.87625 -11.06125 4.7525 -10.0625 4.625 C-9.051875 4.41875 -8.04125 4.2125 -7 4 C-6.67 3.34 -6.34 2.68 -6 2 C-4.34178227 1.62690101 -2.67422986 1.29299023 -1 1 C-0.67 0.67 -0.34 0.34 0 0 Z " fill="#CE2854" transform="translate(275,314)"/>
<path d="M0 0 C1.49828872 3.88235819 0.43110582 6.43449288 -0.9375 10.25 C-1.31777344 11.32765625 -1.69804687 12.4053125 -2.08984375 13.515625 C-2.39019531 14.33546875 -2.69054687 15.1553125 -3 16 C-4.32 15.67 -5.64 15.34 -7 15 C-6.64896236 9.55891664 -6.64896236 9.55891664 -6 7 C-4.0625 5.8125 -4.0625 5.8125 -2 5 C-0.71745356 2.46229997 -0.71745356 2.46229997 0 0 Z " fill="#D83261" transform="translate(160,167)"/>
<path d="M0 0 C0.66 0 1.32 0 2 0 C0.93204565 4.50066475 -0.14038586 8.7494534 -2 13 C-4.27183419 10.53884629 -4.9736202 9.26379801 -5.3125 5.875 C-5 3 -5 3 -3 1 C-3 1.99 -3 2.98 -3 4 C-2.34 3.67 -1.68 3.34 -1 3 C-0.67 2.01 -0.34 1.02 0 0 Z " fill="#DC2C5D" transform="translate(479,240)"/>
<path d="M0 0 C-1.56612193 3.84411747 -4.02094121 6.15950209 -7 9 C-8.2684375 10.3303125 -8.2684375 10.3303125 -9.5625 11.6875 C-11.69612724 13.71171046 -13.30823065 14.90335323 -16 16 C-16 15.34 -16 14.68 -16 14 C-15.34 14 -14.68 14 -14 14 C-13.61134766 13.12021484 -13.61134766 13.12021484 -13.21484375 12.22265625 C-11.91475016 9.84402842 -10.51125162 8.31081607 -8.5625 6.4375 C-7.96566406 5.85871094 -7.36882812 5.27992188 -6.75390625 4.68359375 C-5.88572266 3.85021484 -5.88572266 3.85021484 -5 3 C-4.47277344 2.43410156 -3.94554687 1.86820313 -3.40234375 1.28515625 C-2 0 -2 0 0 0 Z " fill="#FEE9F3" transform="translate(192,128)"/>
<path d="M0 0 C0 0.99 0 1.98 0 3 C-0.99 3.33 -1.98 3.66 -3 4 C-3.73323796 6.01508358 -3.73323796 6.01508358 -4 8 C-4.99 8 -5.98 8 -7 8 C-8.83691257 11.78187881 -9.15837626 13.94568308 -8 18 C-8.66 17.67 -9.32 17.34 -10 17 C-10 16.34 -10 15.68 -10 15 C-10.99 14.67 -11.98 14.34 -13 14 C-11.71480435 11.13302508 -10.42870746 9.02392288 -8 7 C-7.34 7 -6.68 7 -6 7 C-6 6.34 -6 5.68 -6 5 C-5.34 5 -4.68 5 -4 5 C-4 4.34 -4 3.68 -4 3 C-2 1.375 -2 1.375 0 0 Z " fill="#FEE6F3" transform="translate(235,184)"/>
<path d="M0 0 C0.763125 0.20625 1.52625 0.4125 2.3125 0.625 C1.9825 2.275 1.6525 3.925 1.3125 5.625 C1.9725 5.955 2.6325 6.285 3.3125 6.625 C3.3125 7.285 3.3125 7.945 3.3125 8.625 C3.9725 8.625 4.6325 8.625 5.3125 8.625 C5.6425 9.615 5.9725 10.605 6.3125 11.625 C5.6525 11.625 4.9925 11.625 4.3125 11.625 C4.3125 10.965 4.3125 10.305 4.3125 9.625 C3.6525 9.625 2.9925 9.625 2.3125 9.625 C2.3125 8.965 2.3125 8.305 2.3125 7.625 C1.735 7.3775 1.1575 7.13 0.5625 6.875 C-1.9877997 5.45816683 -3.70535701 3.74872463 -5.6875 1.625 C-2.6875 -0.375 -2.6875 -0.375 0 0 Z " fill="#DC3162" transform="translate(311.6875,124.375)"/>
<path d="M0 0 C-1.12890625 1.4921875 -1.12890625 1.4921875 -3 3 C-5.77734375 3.2578125 -5.77734375 3.2578125 -8.9375 3.125 C-12.57009364 2.98995934 -15.50066799 3.07833439 -19 4 C-21.00946222 3.72949547 -23.01354224 3.40632091 -25 3 C-25 2.67 -25 2.34 -25 2 C-16.61090382 0.7472283 -8.50262969 -0.36011137 0 0 Z " fill="#C12C52" transform="translate(252,83)"/>
<path d="M0 0 C0.33 0 0.66 0 1 0 C1 4.29 1 8.58 1 13 C-0.32 13 -1.64 13 -3 13 C-3.66 13.66 -4.32 14.32 -5 15 C-3.97137215 9.55432314 -2.75385216 4.88182883 0 0 Z " fill="#CB2F5A" transform="translate(142,150)"/>
<path d="M0 0 C4.875 4.625 4.875 4.625 6 8 C6.66 8 7.32 8 8 8 C7.67 8.66 7.34 9.32 7 10 C4.67843403 10.40729228 2.3431213 10.74438677 0 11 C0.29296875 9.01432292 0.5859375 7.02864583 0.87890625 5.04296875 C1.13904799 2.7974658 1.13904799 2.7974658 0 0 Z " fill="#DA2D5E" transform="translate(458,124)"/>
<path d="M0 0 C3.66881155 0.70554068 6.70450534 2.27735506 10 4 C8 6 8 6 5.5625 6.25 C3 6 3 6 0 4 C0 2.68 0 1.36 0 0 Z " fill="#DC295A" transform="translate(419,95)"/>
<path d="M0 0 C0 1.98 0 3.96 0 6 C-0.66 5.814375 -1.32 5.62875 -2 5.4375 C-5.89330114 4.86972692 -9.11375479 5.40718293 -13 6 C-12.67 4.68 -12.34 3.36 -12 2 C-10.9171875 2.3403125 -10.9171875 2.3403125 -9.8125 2.6875 C-5.55216883 3.16087013 -3.94194993 0 0 0 Z " fill="#D52858" transform="translate(318,95)"/>
<path d="M0 0 C3.63 0 7.26 0 11 0 C9.68 4.29 8.36 8.58 7 13 C6.01614486 9.06457943 6.11333512 8.54665953 7 5 C6.62092718 2.81296615 6.62092718 2.81296615 6 1 C4.02 1 2.04 1 0 1 C0 0.67 0 0.34 0 0 Z " fill="#C82853" transform="translate(253,160)"/>
<path d="M0 0 C1.98 0 3.96 0 6 0 C6.66 1.98 7.32 3.96 8 6 C7.01 6.495 7.01 6.495 6 7 C5.34 6.34 4.68 5.68 4 5 C1.93125966 4.3574765 1.93125966 4.3574765 0 4 C0 2.68 0 1.36 0 0 Z " fill="#F52D5F" transform="translate(253,161)"/>
<path d="M0 0 C2.12472576 -0.05386629 4.24983652 -0.09273071 6.375 -0.125 C7.55835938 -0.14820313 8.74171875 -0.17140625 9.9609375 -0.1953125 C13 0 13 0 15 2 C10.38 2 5.76 2 1 2 C1 2.66 1 3.32 1 4 C0.34 4 -0.32 4 -1 4 C-0.67 2.68 -0.34 1.36 0 0 Z " fill="#FFEDF8" transform="translate(220,181)"/>
<path d="M0 0 C3.78496138 1.51398455 4.0072198 2.0144396 6 6 C1.38 6 -3.24 6 -8 6 C-8 5.34 -8 4.68 -8 4 C-4.7 3.67 -1.4 3.34 2 3 C1.34 2.01 0.68 1.02 0 0 Z " fill="#C82C58" transform="translate(229,206)"/>
<path d="M0 0 C-2.39747104 2.97286409 -3.62592765 3.92518553 -7.4375 4.6875 C-8.613125 4.790625 -9.78875 4.89375 -11 5 C-12.66934283 5.31966139 -14.3373217 5.64731066 -16 6 C-13.10600531 3.65788337 -10.32844572 2.13137829 -6.875 0.75 C-6.00617188 0.39421875 -5.13734375 0.0384375 -4.2421875 -0.328125 C-2 -1 -2 -1 0 0 Z " fill="#FEE6F1" transform="translate(222,113)"/>
<path d="M0 0 C1.93242285 3.34520258 2.5463853 6.44767482 3.125 10.25 C3.29257813 11.32765625 3.46015625 12.4053125 3.6328125 13.515625 C3.75398437 14.33546875 3.87515625 15.1553125 4 16 C-0.875 11.375 -0.875 11.375 -2 8 C-1.54451823 5.26187393 -0.74685247 2.6798824 0 0 Z " fill="#CC2955" transform="translate(155,215)"/>
<path d="M0 0 C0 0.33 0 0.66 0 1 C-11.385 0.505 -11.385 0.505 -23 0 C-23 -0.33 -23 -0.66 -23 -1 C-14.79538295 -1.90802086 -7.93625473 -2.53960151 0 0 Z " fill="#FFE6F2" transform="translate(384,83)"/>
<path d="M0 0 C1.27064581 3.81193742 0.49046675 6.6849996 -0.3125 10.5 C-0.44333984 11.17675781 -0.57417969 11.85351562 -0.70898438 12.55078125 C-1.39621199 15.91720057 -2.07004121 18.10506182 -4 21 C-3.63419196 13.54508438 -2.79080349 6.95068039 0 0 Z " fill="#FFE4EE" transform="translate(244,191)"/>
<path d="M0 0 C4.29 0 8.58 0 13 0 C13 0.99 13 1.98 13 3 C11.20841511 3.02696365 9.41671527 3.04637917 7.625 3.0625 C6.62726563 3.07410156 5.62953125 3.08570313 4.6015625 3.09765625 C2 3 2 3 0 2 C0 1.34 0 0.68 0 0 Z " fill="#C6325D" transform="translate(264,183)"/>
<path d="M0 0 C2.86724686 0.57344937 3.8614515 0.8614515 6 3 C6.33 2.01 6.66 1.02 7 0 C7.66 0.33 8.32 0.66 9 1 C8.34 2.98 7.68 4.96 7 7 C6.34 7 5.68 7 5 7 C3.7109375 5.46875 3.7109375 5.46875 2.375 3.5 C1.70597656 2.52546875 1.70597656 2.52546875 1.0234375 1.53125 C0.68570313 1.0259375 0.34796875 0.520625 0 0 Z " fill="#E4396B" transform="translate(212,201)"/>
<path d="M0 0 C0.66 0 1.32 0 2 0 C2.6875 1.8125 2.6875 1.8125 3 4 C1.6875 5.5625 1.6875 5.5625 0 7 C-0.99 8.485 -0.99 8.485 -2 10 C-3.0625 8.1875 -3.0625 8.1875 -4 6 C-3.67 5.01 -3.34 4.02 -3 3 C-3 3.66 -3 4.32 -3 5 C-2.34 5 -1.68 5 -1 5 C-0.67 3.35 -0.34 1.7 0 0 Z " fill="#DD2E5E" transform="translate(344,170)"/>
<path d="M0 0 C0.99 0 1.98 0 3 0 C3.66 1.32 4.32 2.64 5 4 C3.38007835 4.86375896 1.75388139 5.71575854 0.125 6.5625 C-1.23238281 7.27599609 -1.23238281 7.27599609 -2.6171875 8.00390625 C-3.40351563 8.33261719 -4.18984375 8.66132812 -5 9 C-5.66 8.67 -6.32 8.34 -7 8 C-4.77810176 5.77810176 -2.91517292 5.07401108 0 4 C0 2.68 0 1.36 0 0 Z " fill="#D62D5D" transform="translate(220,106)"/>
<path d="M0 0 C0.66 0.99 1.32 1.98 2 3 C1.01 3.33 0.02 3.66 -1 4 C-1 4.66 -1 5.32 -1 6 C-1.66 6 -2.32 6 -3 6 C-3 6.99 -3 7.98 -3 9 C-4.98 9.66 -6.96 10.32 -9 11 C-7.8829081 7.98385187 -6.3874224 6.35491331 -3.9375 4.375 C-0.99175287 2.32880603 -0.99175287 2.32880603 0 0 Z " fill="#D53361" transform="translate(318,266)"/>
<path d="M0 0 C0.33 0 0.66 0 1 0 C1.09038099 5.15171623 0.84681133 9.91913204 0 15 C-1.32 15.33 -2.64 15.66 -4 16 C-2.68 10.72 -1.36 5.44 0 0 Z " fill="#CD2351" transform="translate(342,220)"/>
<path d="M0 0 C0.33 0 0.66 0 1 0 C1 1.98 1 3.96 1 6 C1.99 6.33 2.98 6.66 4 7 C3.01 8.485 3.01 8.485 2 10 C2.33 10.66 2.66 11.32 3 12 C2.01 12 1.02 12 0 12 C-0.76173392 7.6835078 -1.16063604 4.25566547 0 0 Z " fill="#D62D56" transform="translate(244,194)"/>
<path d="M0 0 C2.32509781 2.13802098 3.82167236 4.18598137 5.25 7 C5.60578125 7.680625 5.9615625 8.36125 6.328125 9.0625 C7 11 7 11 6 14 C4.98915735 12.42356682 3.99169489 10.8385483 3 9.25 C2.443125 8.36828125 1.88625 7.4865625 1.3125 6.578125 C0 4 0 4 0 0 Z " fill="#FFEBF5" transform="translate(329,152)"/>
<path d="M0 0 C1.32 0.33 2.64 0.66 4 1 C4 1.66 4 2.32 4 3 C5.98 3.66 7.96 4.32 10 5 C10 5.66 10 6.32 10 7 C10.66 7.33 11.32 7.66 12 8 C11.01 8.33 10.02 8.66 9 9 C9 8.01 9 7.02 9 6 C7.02 6 5.04 6 3 6 C3 5.01 3 4.02 3 3 C2.01 2.67 1.02 2.34 0 2 C0 1.34 0 0.68 0 0 Z " fill="#CB2A58" transform="translate(429,100)"/>
<path d="M0 0 C1.0625 1.8125 1.0625 1.8125 2 4 C1.67 4.99 1.34 5.98 1 7 C-0.32 6.67 -1.64 6.34 -3 6 C-3 5.34 -3 4.68 -3 4 C-3.66 3.34 -4.32 2.68 -5 2 C-3.35 1.34 -1.7 0.68 0 0 Z " fill="#DE2E60" transform="translate(334,88)"/>
<path d="M0 0 C2.97 0 5.94 0 9 0 C9.33 0.66 9.66 1.32 10 2 C9.34 2 8.68 2 8 2 C8 2.66 8 3.32 8 4 C7.34 4 6.68 4 6 4 C6 3.34 6 2.68 6 2 C3.69 2.33 1.38 2.66 -1 3 C-0.67 2.01 -0.34 1.02 0 0 Z " fill="#E82F65" transform="translate(223,185)"/>
<path d="M0 0 C0.66 0.33 1.32 0.66 2 1 C1.8125 2.875 1.8125 2.875 1 5 C-1.375 6.0625 -1.375 6.0625 -4 7 C-5.77277259 8.52007842 -5.77277259 8.52007842 -7 10 C-7.66 9.67 -8.32 9.34 -9 9 C-8.43410156 8.51789063 -7.86820313 8.03578125 -7.28515625 7.5390625 C-6.55167969 6.90742187 -5.81820312 6.27578125 -5.0625 5.625 C-4.33160156 4.99851562 -3.60070312 4.37203125 -2.84765625 3.7265625 C-0.91619094 2.12252286 -0.91619094 2.12252286 0 0 Z " fill="#CD2C59" transform="translate(172,111)"/>
<path d="M0 0 C2.475 0.99 2.475 0.99 5 2 C5 4.31 5 6.62 5 9 C1.9083091 6.47043472 1.09068668 3.77545388 0 0 Z " fill="#DD295B" transform="translate(327,146)"/>
<path d="M0 0 C1.98 0.99 3.96 1.98 6 3 C5.34 4.65 4.68 6.3 4 8 C4.66 8.33 5.32 8.66 6 9 C5.01 9 4.02 9 3 9 C2.01 6.03 1.02 3.06 0 0 Z " fill="#DD295B" transform="translate(190,276)"/>
<path d="M0 0 C0.33 0.66 0.66 1.32 1 2 C1.99 2 2.98 2 4 2 C4.99 4.97 5.98 7.94 7 11 C5.29115995 9.37660195 3.62553283 7.70680947 2 6 C2 5.34 2 4.68 2 4 C1.34 4 0.68 4 0 4 C0 2.68 0 1.36 0 0 Z " fill="#FCE8F1" transform="translate(168,248)"/>
<path d="M0 0 C0.33 0.66 0.66 1.32 1 2 C-0.43257963 4.72872311 -1.81722366 6.81722366 -4 9 C-4.99 8.67 -5.98 8.34 -7 8 C-6.34 8 -5.68 8 -5 8 C-5 7.01 -5 6.02 -5 5 C-4.34 5 -3.68 5 -3 5 C-2.690625 4.360625 -2.38125 3.72125 -2.0625 3.0625 C-1 1 -1 1 0 0 Z " fill="#FEE3EF" transform="translate(175,144)"/>
<path d="M0 0 C2.64 0 5.28 0 8 0 C8.33 0.66 8.66 1.32 9 2 C8.34 2 7.68 2 7 2 C7.66 3.32 8.32 4.64 9 6 C5.06326356 4.68775452 2.77280706 3.08089673 0 0 Z " fill="#D52C5D" transform="translate(297,120)"/>
<path d="M0 0 C3.34373475 0.55728913 6.03312999 1.35173889 9 3 C8.67 3.66 8.34 4.32 8 5 C5.125 5.125 5.125 5.125 2 5 C1.34 4.34 0.68 3.68 0 3 C0.66 2.67 1.32 2.34 2 2 C1.34 1.34 0.68 0.68 0 0 Z " fill="#D42A5B" transform="translate(285,89)"/>
<path d="M0 0 C0.66 0.33 1.32 0.66 2 1 C1.21625 1.61875 0.4325 2.2375 -0.375 2.875 C-2.96837647 4.89858661 -2.96837647 4.89858661 -5 7 C-5 6.34 -5 5.68 -5 5 C-6.65 5 -8.3 5 -10 5 C-8.66666667 4.33333333 -7.33333333 3.66666667 -6 3 C-4.453125 2.1646875 -4.453125 2.1646875 -2.875 1.3125 C-1.451875 0.6628125 -1.451875 0.6628125 0 0 Z " fill="#FEE6F0" transform="translate(417,310)"/>
<path d="M0 0 C-6.625 3.125 -6.625 3.125 -10 2 C-9.34 2 -8.68 2 -8 2 C-8 1.01 -8 0.02 -8 -1 C-4.59745511 -2.2151946 -3.06748874 -1.86240388 0 0 Z " fill="#D52759" transform="translate(412,313)"/>
<path d="M0 0 C1.73169596 3.1622274 2.7128976 6.26742722 3.625 9.75 C3.88539063 10.73484375 4.14578125 11.7196875 4.4140625 12.734375 C4.60742188 13.48203125 4.80078125 14.2296875 5 15 C4.34 15 3.68 15 3 15 C1.08697693 11.73386305 0.64325339 9.00554752 0.375 5.25 C0.30023438 4.26515625 0.22546875 3.2803125 0.1484375 2.265625 C0.09945312 1.51796875 0.05046875 0.7703125 0 0 Z " fill="#FEE1EE" transform="translate(133,228)"/>
<path d="M0 0 C2.04119788 1.61594832 4.04072937 3.2856382 6 5 C6 5.66 6 6.32 6 7 C6.66 7 7.32 7 8 7 C8 7.66 8 8.32 8 9 C7.01 8.67 6.02 8.34 5 8 C5 7.34 5 6.68 5 6 C3.68 5.67 2.36 5.34 1 5 C0.67 3.35 0.34 1.7 0 0 Z " fill="#FDE9F4" transform="translate(211,201)"/>
<path d="M0 0 C4.455 0.99 4.455 0.99 9 2 C9.33 3.32 9.66 4.64 10 6 C8.02 5.34 6.04 4.68 4 4 C4 3.34 4 2.68 4 2 C2.68 1.67 1.36 1.34 0 1 C0 0.67 0 0.34 0 0 Z " fill="#FEE5F2" transform="translate(429,99)"/>
<path d="M0 0 C1.65 0 3.3 0 5 0 C2.15314251 2.31966166 -0.4763875 3.91581154 -4 5 C-4.99 4.67 -5.98 4.34 -7 4 C-6.34 4 -5.68 4 -5 4 C-5.33 3.01 -5.66 2.02 -6 1 C-3.03 1.495 -3.03 1.495 0 2 C0 1.34 0 0.68 0 0 Z " fill="#CD2959" transform="translate(296,309)"/>
<path d="M0 0 C0.66 0.33 1.32 0.66 2 1 C0.68 4.3 -0.64 7.6 -2 11 C-2.33 11 -2.66 11 -3 11 C-3.33 9.02 -3.66 7.04 -4 5 C-3.01 4.67 -2.02 4.34 -1 4 C-0.26676204 1.98491642 -0.26676204 1.98491642 0 0 Z " fill="#FFE4F1" transform="translate(140,151)"/>
<path d="M0 0 C0.99 0.33 1.98 0.66 3 1 C1.35 2.98 -0.3 4.96 -2 7 C-2.66 6.67 -3.32 6.34 -4 6 C-3.0022242 3.00667261 -2.2477975 2.05233685 0 0 Z " fill="#D92555" transform="translate(183,131)"/>
<path d="M0 0 C1.50433594 0.29197266 1.50433594 0.29197266 3.0390625 0.58984375 C4.19535156 0.82380859 4.19535156 0.82380859 5.375 1.0625 C5.375 1.3925 5.375 1.7225 5.375 2.0625 C1.085 2.0625 -3.205 2.0625 -7.625 2.0625 C-7.625 1.4025 -7.625 0.7425 -7.625 0.0625 C-4.81015955 -1.34492022 -3.05563887 -0.60402164 0 0 Z " fill="#D2274D" transform="translate(254.625,105.9375)"/>
<path d="M0 0 C-0.66 1.65 -1.32 3.3 -2 5 C-2.66 4.67 -3.32 4.34 -4 4 C-6.3494053 4.60760482 -8.68529088 5.27129528 -11 6 C-9.73083275 3.46166551 -8.58375191 3.10599099 -6.0625 1.875 C-5.35222656 1.52179688 -4.64195312 1.16859375 -3.91015625 0.8046875 C-2 0 -2 0 0 0 Z " fill="#FEE9F4" transform="translate(308,306)"/>
<path d="M0 0 C4.62 0 9.24 0 14 0 C13.67 0.99 13.34 1.98 13 3 C12.34 3 11.68 3 11 3 C11 2.34 11 1.68 11 1 C7.37 1.33 3.74 1.66 0 2 C0 1.34 0 0.68 0 0 Z " fill="#B73D5F" transform="translate(221,183)"/>
<path d="M0 0 C0.66 0.33 1.32 0.66 2 1 C0.02 3.31 -1.96 5.62 -4 8 C-5.32 7.67 -6.64 7.34 -8 7 C-2.25 2 -2.25 2 0 2 C0 1.34 0 0.68 0 0 Z " fill="#FFE3F1" transform="translate(451,287)"/>
<path d="M0 0 C1.88343932 3.76687864 2.22057835 5.02958963 2 9 C1.34 9 0.68 9 0 9 C-0.66 9.66 -1.32 10.32 -2 11 C-1.34 7.37 -0.68 3.74 0 0 Z " fill="#CE2856" transform="translate(252,161)"/>
<path d="M0 0 C0.99 0.495 0.99 0.495 2 1 C2.99 1 3.98 1 5 1 C5.33 2.32 5.66 3.64 6 5 C4.68 5 3.36 5 2 5 C1.34 4.34 0.68 3.68 0 3 C0 2.01 0 1.02 0 0 Z " fill="#DE2D60" transform="translate(319,136)"/>
<path d="M0 0 C-2.97 1.65 -5.94 3.3 -9 5 C-8 1 -8 1 -6.1875 -0.3125 C-4 -1 -4 -1 0 0 Z " fill="#FFE5F2" transform="translate(193,98)"/>
<path d="M0 0 C0.33 0.66 0.66 1.32 1 2 C1.66 2 2.32 2 3 2 C3.33 3.32 3.66 4.64 4 6 C3.01 6.66 2.02 7.32 1 8 C0.67 5.36 0.34 2.72 0 0 Z " fill="#FEE3EF" transform="translate(272,193)"/>
<path d="M0 0 C1.0625 1.875 1.0625 1.875 2 4 C1.67 4.66 1.34 5.32 1 6 C0.01 5.67 -0.98 5.34 -2 5 C-2.66 5.66 -3.32 6.32 -4 7 C-3.67 5.35 -3.34 3.7 -3 2 C-2.01 2 -1.02 2 0 2 C0 1.34 0 0.68 0 0 Z " fill="#DA2C5E" transform="translate(141,158)"/>
<path d="M0 0 C0 0.66 0 1.32 0 2 C-0.66 2 -1.32 2 -2 2 C-2.33 2.66 -2.66 3.32 -3 4 C-5.31 4 -7.62 4 -10 4 C-7.02096266 1.02096266 -4.19714671 0 0 0 Z " fill="#C82D58" transform="translate(328,91)"/>
<path d="M0 0 C2.9375 0.375 2.9375 0.375 6 1 C6.33 1.66 6.66 2.32 7 3 C3.86650268 4.04449911 3.01031744 3.93423645 0 3 C0 2.01 0 1.02 0 0 Z " fill="#DA305E" transform="translate(403,89)"/>
<path d="M0 0 C0.66 0.33 1.32 0.66 2 1 C1.01 2.485 1.01 2.485 0 4 C-3.625 4.6875 -3.625 4.6875 -7 5 C-4.88437775 2.67281553 -2.94982021 1.14186589 0 0 Z " fill="#C62853" transform="translate(289,287)"/>
<path d="M0 0 C2.4375 1.1875 2.4375 1.1875 5 3 C5.8125 5.6875 5.8125 5.6875 6 8 C5.34 8 4.68 8 4 8 C0 2.58823529 0 2.58823529 0 0 Z " fill="#C7305B" transform="translate(149,265)"/>
<path d="M0 0 C1.98 0 3.96 0 6 0 C5.67 1.65 5.34 3.3 5 5 C2 4 2 4 0.8125 1.9375 C0.544375 1.298125 0.27625 0.65875 0 0 Z " fill="#DE2A5D" transform="translate(145,259)"/>
<path d="M0 0 C0.33 0 0.66 0 1 0 C1.08090971 1.62418745 1.13914995 3.24951745 1.1875 4.875 C1.22230469 5.77992188 1.25710937 6.68484375 1.29296875 7.6171875 C1.19628906 8.40351563 1.09960938 9.18984375 1 10 C0.01 10.66 -0.98 11.32 -2 12 C-1.44687265 7.97007218 -0.8441938 3.97977076 0 0 Z " fill="#C6254E" transform="translate(242,204)"/>
<path d="M0 0 C0.66 0 1.32 0 2 0 C4.5393228 3.41831915 5.3636198 5.75776898 5 10 C2.35534962 6.8745041 1.15585285 3.91211733 0 0 Z " fill="#FEEDF5" transform="translate(472,142)"/>
<path d="M0 0 C0.33 0.66 0.66 1.32 1 2 C0.06833174 4.03273074 -0.9349985 6.03384339 -2 8 C-2.33 8.66 -2.66 9.32 -3 10 C-3.66 10 -4.32 10 -5 10 C-3.84414715 6.08788267 -2.64465038 3.1254959 0 0 Z " fill="#C32750" transform="translate(148,140)"/>
<path d="M0 0 C2.86724686 0.57344937 3.8614515 0.8614515 6 3 C3.92446352 3.5534764 2.15634036 4 0 4 C0 2.68 0 1.36 0 0 Z " fill="#D6315D" transform="translate(419,95)"/>
<path d="M0 0 C2.97 0.33 5.94 0.66 9 1 C6.64046906 3.35953094 5.22104383 3.49141413 2 4 C1.34 2.68 0.68 1.36 0 0 Z " fill="#CE335F" transform="translate(382,84)"/>
<path d="M0 0 C0.99 0.99 1.98 1.98 3 3 C0.1875 3.625 0.1875 3.625 -3 4 C-3.99 3.34 -4.98 2.68 -6 2 C-4.02 1.34 -2.04 0.68 0 0 Z " fill="#FEEBF1" transform="translate(279,83)"/>
</svg>
