<?xml version="1.0" encoding="UTF-8"?><svg xmlns="http://www.w3.org/2000/svg" width="2400" height="2390"><path d="M1853 602a88951 88951 0 0 1 193.9-.2 258.5 258.5 0 0 1 58.7 5.5c21.3 4.7 42 12 61.4 21.7l2.3 1.1a270.5 270.5 0 0 1 53.5 35A288 288 0 0 1 2265 706l1.3 1.6c38 45.4 64.6 98.3 83.6 154l2.2 6.6c30.4 87 40.1 181.7-22 685.8a550.2 550.2 0 0 1-8.3 16.4 367 367 0 0 1-21.8 37.6l-1.4 2.2a402.8 402.8 0 0 1-19.6 26.8l-2.2 2.8c-5 6.3-10.4 12.2-15.9 18a196.8 196.8 0 0 1-24 24.1l-1.5 1.6a327.6 327.6 0 0 1-175.8 79.3l-2.7.3c-22.1 2.5-44.6 2-66.8 2h-12.7a25946.3 25946.3 0 0 1-110.8-.2H1808a1913020.6 1913020.6 0 0 0-260-.4h-3.7a5988969.3 5988969.3 0 0 0-295.3-.4h-2.6l-49.5-.1v81h580c1.1 319 1.1 319-20 358l-1.7 3.2c-13.8 24.4-34 47-56.3 63.8l-2 1.5a420.3 420.3 0 0 1-124 63.5l-3.2 1c-82.1 27.6-169.2 38.6-255.4 43.7l-3 .2a1962 1962 0 0 1-24.2 1.2c-23.3 1.3-46.6 1-69.9 1l-14.2.1a1436.8 1436.8 0 0 1-123.4-4.3c-74.7-5.9-149.4-17.3-220.7-40.9l-3.6-1.2c-49.2-16.2-98.1-38.8-138.4-71.8l-1.6-1.3A458 458 0 0 1 691 2241l-2.5-2.4c-4.8-4.6-9-9.6-13.3-14.8l-4.3-5.3a221 221 0 0 1-51.4-151.7v-37.4a15961.3 15961.3 0 0 1 0-75v-2.3a216169.3 216169.3 0 0 0 .2-191.6v-2.5a1034653.7 1034653.7 0 0 0 .2-202.9c0-20.3 0-40.8 2.4-61l.3-3.5c7-59.2 28-117 69.1-161.1 2-2 3.7-4.2 5.5-6.3 10.5-12 23-21.9 35.8-31.2l1.8-1.3c65.6-47.5 147.6-64.9 227.3-64.8a22538.8 22538.8 0 0 0 86.5-.1h84.4a3907103938.3 3907103938.3 0 0 1 130.6-.2h2.8a1688398 1688398 0 0 1 125.2-.1h2.5a36386.3 36386.3 0 0 1 103 0c66 0 129.9-5.5 189.9-35.5l2.2-1.1a271.8 271.8 0 0 0 57.8-39.9l1.6-1.4a147.9 147.9 0 0 0 19.3-19.6c51.7-55 77.1-135.1 83.1-209l.2-2.7c1.1-13.2 1-26.4 1-39.6v-11a20858 20858 0 0 0 .3-91.9l.1-43.6v-2.7a1032998.7 1032998.7 0 0 1 .4-125.5Zm-395 1414-1.5 1.4a106.6 106.6 0 0 0-31.5 53.6l-.7 2.7c-5.4 26.3 1 53.6 14.7 76.3a107.6 107.6 0 0 0 67 46 106.4 106.4 0 0 0 92-26l2-1.7a104 104 0 0 0 2.2-146 103.1 103.1 0 0 0-144.2-6.2Z" fill="#FFD242"/><path d="M1684 122c.5.4 1 .9 1.7 1.3a238.5 238.5 0 0 1 43.2 44.5c6.3 8 12 16.3 17.1 25.2l1.1 2a203.7 203.7 0 0 1 30 106.2v9.9a20429 20429 0 0 0 0 45.7 75976.5 75976.5 0 0 1-.3 178.5v2.6a119543.2 119543.2 0 0 0-.2 182v2.5a37392.2 37392.2 0 0 0-.2 98c0 83.4-11.5 167.5-70.3 231.3a159.2 159.2 0 0 1-26.3 26 190 190 0 0 0-5.2 4.4c-47 40.2-109.9 60.6-170 70.2l-2.8.4a383 383 0 0 1-65 3.6 7689.5 7689.5 0 0 1-40.6 0 40540.3 40540.3 0 0 1-122.7.1H1206.1a1444696.4 1444696.4 0 0 1-149.7.2h-2.6a293340.8 293340.8 0 0 0-171.8.1c-23.2 0-46.5 1-69.4 4.5-.8 0-1.5.2-2.2.3A319 319 0 0 0 715 1190l-2.7 1.3A266.2 266.2 0 0 0 642 1241a215.4 215.4 0 0 0-28.7 32.5A319.8 319.8 0 0 0 572 1349l-1 2.3a398 398 0 0 0-26.3 149.2v11.3a10599 10599 0 0 0-.2 47.6 49362.5 49362.5 0 0 0-.2 90.2v2.7a526032.8 526032.8 0 0 1-.3 127.7 63819 63819 0 0 1-201.2.4c-18.6 0-37.1-1.5-55.2-6l-3.1-.9A276.6 276.6 0 0 1 231 1754l-2.6-1.2A274.2 274.2 0 0 1 176 1719l-1.6-1.3A322.9 322.9 0 0 1 124 1667l-2.2-2.8a371.2 371.2 0 0 1-33.1-49.5c-41-72.6-62.6-153-86.6-353.3l-.2-5c-1-21.8-1.1-43.6-1-65.3v-2.9c0-28 0-56.1 2.1-84.2l.2-2.7c4-56.5 11.5-112.5 25.8-167.3l1-3.6c17.5-68.7 46.9-135.3 92-190.4.4-.5.9-1 1.3-1.7 7.6-9.2 16-17.7 24.3-26.2l1.6-1.6a243 243 0 0 1 25.5-22.5c9.9-8.2 20.4-15.2 31.3-22l2.1-1.3a310 310 0 0 1 168-46.8h25a27635.6 27635.6 0 0 1 113.4.2h59.9a2030815 2030815 0 0 0 266.1.4h3.9a6369186.5 6369186.5 0 0 0 302.2.4h2.7l50.7.1v-81H620c-1.4-348.3-1.4-348.3 57.6-407.9a194.7 194.7 0 0 1 22-19C771.3 54.5 866 30 1119 1l2.7-.1c94-4.1 189-.3 562.3 121.1Zm-841 66-3 .8c-13.8 4.1-26 11.1-37 20.2l-2.4 1.9a103.1 103.1 0 0 0-34.3 65.7 107 107 0 0 0 24.1 79.3A104.1 104.1 0 0 0 857 392c30.9 1.6 57-4.6 81-25l2-1.6c20.5-16.5 30.8-42.8 33.8-68.2 2.5-23.9-4.7-50.4-19.2-69.5a236 236 0 0 0-6.6-7.7l-2-2.6c-14.8-18.2-41-30-64-32.4a121 121 0 0 0-39 3Z" fill="#3672A4"/></svg>