<?xml version="1.0" encoding="UTF-8"?><svg xmlns="http://www.w3.org/2000/svg" width="2048" height="1945"><path d="M982.7-.4a15426.3 15426.3 0 0 0 19.4 0h2.6c40 0 40 0 59.4 2.6l2.2.4a271 271 0 0 1 24.7 5c4 1 7.9 1.8 11.9 2.5 5.4.9 10.6 2.2 15.8 3.7l2.9.8c8.2 2.3 16.3 4.8 24.4 7.4l3.3 1a709.3 709.3 0 0 1 11.6 4c5 1.7 9.6 3.6 14.2 6 2.5 1.3 5.2 2.1 7.9 3a390.9 390.9 0 0 1 46.3 22.8l7.7 4.2v2l2.2.3c3.1.8 5.4 2 8.1 3.6l2.7 1.6 2 1.5v2l2.4.6c4.3 1.7 7.5 4 11.2 6.7 2.1 1.5 4.1 2.6 6.4 3.7v2l2.1.7c3.5 1.6 6 3.8 8.9 6.3 2.2 1.3 2.2 1.3 4 2v2l2.2.8a35 35 0 0 1 8.1 5.2l2.7 2.1 2 1.9v2l1.9.3c2.1.7 2.1.7 4.1 3.7l1.8.9c3 1.5 4.8 3.7 7.2 6.1l6.3 5.9 1.6 1.5 9 7.9c4.7 4.2 9.2 8.6 13.7 13.1l2.4 2.5c4.9 4.9 9.5 9.9 14 15.1l1.7 2 3 3.5 4.3 4.5c5 5.5 5 5.5 5 8l1.8.8c2.5 1.4 3.6 2.7 5.3 5l1.7 2.2 1.8 2.4a2944545334.4 2944545334.4 0 0 0 8 10.7c1.4 1.9 1.4 1.9 1.4 3.9l3 1c1.8 2.4 1.8 2.4 3.6 5.4l1.9 3a21 21 0 0 1 2.5 5.6l3 1a60 60 0 0 1 3.8 6c2.4 4.1 5 8.1 7.8 12 3.2 4.6 6 9.4 8.8 14.3l3.7 5.8c2.4 3.6 4.4 7.4 6.5 11.3 1.6 3 3.5 5.8 5.4 8.6a1057.7 1057.7 0 0 1 5.1 10 748.7 748.7 0 0 1 24.9 51l1.4 3a287 287 0 0 1 9 21.6l.9 2 2.2 5.6c1.4 3.4 2.6 7 3.7 10.5 1.6 4.7 3.4 9.4 5.2 14.1 1.8 4.8 3.4 9.7 4.8 14.7l4.2 13c2.2 7 4.4 13.9 6.4 20.8l.6 2c1.2 4 2.1 8 3 12a609.7 609.7 0 0 1 13.5 59.4c5.1 26.8 9 53.7 12 80.7l.2 3c1.3 11.5 2.3 23 2.9 34.6-5-.7-9.5-1.6-14.3-3.2l-2.1-.7-27.3-9c-13.4-4.6-13.4-4.6-27.1-8.5-2.2-.6-2.2-.6-4.7-1.6-2.4-1-4.8-1.6-7.4-2.2-7.3-1.8-14.5-4-21.7-6.3-5.3-1.6-10.5-3-16-4-3.9-.8-7.6-2.1-11.4-3.5a16484.1 16484.1 0 0 1-5-38c-.8-5.9-1.9-11.6-3.2-17.5l-2.2-11c-3.9-21.4-9.9-42.2-16.4-62.9a991.9 991.9 0 0 1-6-19.4c-2.4-7.3-5.2-14.4-8.1-21.5l-6.3-16.4c-1.8-4.7-3.6-9.1-5.9-13.5-1-2.1-2-4.3-2.8-6.6-1.9-4.9-4.2-9.5-6.6-14.1-1.1-2.3-2-4.5-2.9-6.9-1.7-4.7-4-9-6.4-13.5l-1.4-2.5-3.8-7.2-1.7-3.3c-3.1-5.6-6.3-11.2-9.6-16.7l-4.8-8.7a156.7 156.7 0 0 0-11.8-18.6l-5.3-7.9-2.2-3.2-2-3.1c-1.6-2.5-1.6-2.5-1.6-4.5h-2c-1.4-1.8-1.4-1.8-3-4.3-1.5-2.3-3-4.6-4.7-6.9-1.3-1.8-1.3-1.8-1.3-3.8h-2l-.8-1.8c-1.4-2.5-3.1-4.1-5.2-6.2l-3.7-4.6-9-11.2-2.1-2.7c-2.3-2.6-4.7-5-7.2-7.5l-1.8-2.4c-2.5-3-5.3-5.4-8.2-7.9-2.5-2.1-4.7-4.4-7-6.7-2.6-2.7-5.2-5.1-8-7.5-3-2.5-3-2.5-5.2-4.8-4-3.8-8.3-7.1-12.7-10.5l-2-1.6-1.8-1.4-1.3-1.2v-2c-.6 0-1.1-.2-1.7-.3-3-1-4.8-2.6-7.3-4.7a350 350 0 0 0-29.1-19c-8.3-5-17-9-25.9-13l-2.6-1.2c-2-1-4.2-1.9-6.4-2.8l-3.1-1.3c-11-4.6-22.4-8.3-33.9-11.7l-2.3-.7c-38.8-11.8-81.3-11.8-121.3-7l-2.6.3a287.7 287.7 0 0 0-31 5.5c-3.2.8-6.5 1.4-9.8 2a83 83 0 0 0-12.2 3.1 88 88 0 0 1-7.5 1.7c-5.1 1-10 2.4-15 4l-2.6.7a672.9 672.9 0 0 0-25.9 8.4c-11.9 3.9-23.2 9-34.6 14.1l-7.7 3.4c-11 4.8-22.4 9.7-32.4 16.4-2.7 1.8-5.4 3.4-8.3 5-10.5 5.6-21 12-30.1 19.8-2.7 2.3-2.7 2.3-5 3.6-3.2 2-6.2 4.3-9.2 6.6l-1.7 1.3a92.7 92.7 0 0 0-9.8 8.8l-2.4 1.9a45.6 45.6 0 0 0-7 7.6c-1.9 1.8-3.2 2-5.6 2.5l-.8 2.1a13 13 0 0 1-4.8 6 92.3 92.3 0 0 0-16.3 19L693 276h-2l-.9 2.4C689 281 689 281 687 282l-3 5-4.5 6.1-2.3 3.2c-1.7 2-3.3 3.9-5.2 5.7l-3 5-3 4.8-1.6 2.4-1.4 1.8h-2l-1 5h-2l-.8 2.2a42.8 42.8 0 0 1-4.2 7.8h-2l-.3 2.2c-.8 3.1-2 4.9-3.9 7.5-4.6 6.4-9 12.9-11.8 20.3h-2l-.7 2.5a70 70 0 0 1-5.6 11.3 90521.2 90521.2 0 0 0-4.7 8.2c-3 5.2-5.7 10.4-8 16-2.8 6.4-5.8 12.7-9 19a144 144 0 0 0-6 13.3 410.8 410.8 0 0 1-6 14.7l-1.3 3.2c-3.4 8.2-6.4 16.5-9.3 25l-1.2 3.2a640 640 0 0 0-8.8 27.7c-2.7 9.1-5.3 18.2-7.5 27.5-.9 3.4-.9 3.4-2 6.4a82.3 82.3 0 0 0-2.4 10.4 117 117 0 0 1-2.5 11c-1.1 4-1.8 8-2.5 12-.7 4.3-1.5 8.7-2.5 13-1.1 5-1.8 10-2.5 15-1.5 10.9-1.5 10.9-2.6 16-1.1 6.1-1.6 12.3-2 18.4l-1.6 15.3A773 773 0 0 0 540 715l-.1 2.7a1008.7 1008.7 0 0 0 10 183.2 206 206 0 0 1 2 13c1 7.3 2.2 14.5 3.5 21.8l.7 3.4c1.2 6.5 2.6 12.9 4.2 19.2.9 3.3 1.5 6.6 2.1 9.9a619.5 619.5 0 0 0 12.7 50.6 925.3 925.3 0 0 0 33 95.4 892.8 892.8 0 0 0 16.6 38c1 2.3 2 4.4 2.7 6.7 2 5.6 5 10.9 7.6 16.2l2.9 5.7a600.4 600.4 0 0 0 21.5 40.4c7.6 13.2 7.6 13.2 7.6 16.8h2a652 652 0 0 1 2 3.9l1.1 2.2c.9 1.9.9 1.9.9 3.9h2l1 5 2.6-1c3.6-1 6.6-1.3 10.4-1.3h10.5c14 .1 27.6.4 41 5.4 2.2.8 4.3 1.3 6.6 1.8 5.3 1.3 10 3.7 14.9 6.1l3 1.4c13.5 6.6 26 15.4 37 25.6v2l2 .8c2 1.2 2 1.2 3 4.2l3 1 4.8 5.9 1.3 1.8a149.1 149.1 0 0 1 30.4 107.2c-.7 4.4-1.6 8.8-2.5 13.1l-.4 2.2c-3.9 19-11.5 37-23 52.7-1.7 2.1-1.7 2.1-3.2 4.9l-1.4 2.2h-2l-.7 1.6c-1.7 3.1-4 5.5-6.3 8l-1.5 1.7c-6 6.3-12 12.3-19.5 16.7l-4.4 3.3A147.2 147.2 0 0 1 750 1536l-3.7 1.5a145.6 145.6 0 0 1-88.3 1.5l-2-.6c-12.7-3.7-25.1-10-36-17.4l-2.8-1.8c-3.4-2.3-6.7-4.8-10-7.3l-1.8-1.3c-4.3-3.3-4.3-3.3-5.4-6.6l-2-1c-2-1-2-1-3-4l-2-1c-2-1-2-1-3-4h-2c-1.3-1.4-1.3-1.4-2.7-3.4l-1.6-2.2-1.8-2.4-1.7-2.5A145 145 0 0 1 553 1410l-.2-2.6c-2.3-27.3.7-55.1 16.2-78.4.5-3.3.2-4.7-1.6-7.6l-1.1-1.6a73.6 73.6 0 0 1-4-6.8l-1.7-3a642315131.3 642315131.3 0 0 1-25.6-48l-1.1-2.2c-4.3-8.2-8.2-16.6-11.9-25-2.6-6-5.4-11.7-8.3-17.4a252.7 252.7 0 0 1-8.4-18.2l-1.9-4.3-.9-2-4.8-12-3-7c-2.4-5.1-4.4-10.2-6.4-15.4l-3.6-9.1c-2.5-6.2-4.7-12.3-6.8-18.7-.8-2.5-1.8-5-2.8-7.5-2.3-5.4-4-11-5.9-16.6-1.2-3.6-2.7-7-4.2-10.6a181.8 181.8 0 0 1-2.9-9.4l-1.1-3.6-2.4-7.8-.7-2-3.1-10a689.4 689.4 0 0 1-15.7-56.8 781.7 781.7 0 0 1-16.5-79.6c-.4-2.8-1-5.5-1.6-8.3-1-4-1.5-8.1-2-12.3-.6-6.3-1.5-12.6-2.5-18.9-1.2-7.8-2-15.5-2.7-23.4l-1.5-15a559.9 559.9 0 0 1-3.7-61.3c-.7-24.7-.7-49.3.1-74l.2-4c.6-20.1 2-40 4.7-60l1.5-14.7c.7-7.9 1.9-15.6 3.2-23.4.7-4.1 1.2-8.2 1.7-12.3.8-5.9 1.9-11.6 3.2-17.4.7-3.3 1.2-6.6 1.7-9.9 1-6.9 2.4-13.6 4-20.4l.7-3.7a1346 1346 0 0 1 5.1-22.7l.7-2.5c1-4.3 2.2-8.4 3.6-12.6l1-4.8c.7-4.1 1.8-7.9 3.2-11.8.9-2.6 1.5-5.2 2.2-7.9 3-12.3 6.8-24.4 10.7-36.4l1-3.2c1.8-5.7 3.7-11.2 6-16.7a72 72 0 0 0 2.3-6.8c1.9-6.6 4.4-13 6.8-19.4l2.1-5.5a568 568 0 0 1 10.6-26.3c2.4-6.2 5.3-12.2 8.1-18.2l3-6.2c3.3-7.2 6.7-14.4 10.3-21.5l1-2c2-4 4.2-7.6 6.7-11.3l1.4-2.8c1.7-3.5 3.7-6.8 5.8-10.2 1.7-3 3.4-5.9 5-9 3.4-6 7-11.8 11-17.5l6-9a435.5 435.5 0 0 1 24.5-34.5l8.7-12 1.6-2h2l.8-2.3a15 15 0 0 1 4.2-5.7c3.9-4.3 7.6-8.7 11.3-13 16.2-19 16.2-19 21.7-24h2l.8-2c1.2-2 1.2-2 4.2-3l.9-1.8c1.5-3 3.6-4.9 6.1-7.2l2.4-2.4C643 145 643 145 646 145l.7-1.7c1.7-3 3.6-4.4 6.2-6.5l3-2.4 3.1-2.4 6-4.9 2.7-2.2c2.2-1.8 2.2-1.8 3.7-3.4 2.5-2.3 5.2-4.3 8-6.4 3.3-2.5 6.6-5.1 9.8-7.9 2.8-2.2 2.8-2.2 5.8-3.2l1.8-1.8c2.5-2.5 5.2-4.3 8.2-6.2 4.6-3 9-6.1 13.5-9.3 2.5-1.7 5-3.2 7.5-4.7l5.1-3.3c4.7-3 9.4-5.7 14.3-8.3L755 65c2-1 3.8-1.6 6-2v-2l1.5-.7 25.1-12.1c5-2.6 10.2-5 15.4-7.2l2.6-1.1a405 405 0 0 1 25-9.6 783.4 783.4 0 0 1 27-9.4c2.7-1 5.5-1.7 8.3-2.3l6.2-2c5-1.8 10.2-2.8 15.5-3.9 2.3-.5 4.6-1 6.8-1.7a111.3 111.3 0 0 1 16.2-3.2l2.1-.4 7.1-1.4c5.6-1.1 11.1-1.8 16.8-2.5l2.9-.4a1341.6 1341.6 0 0 1 13.3-1.6c10-1.3 19.8-1.8 29.9-1.9Z" fill="#7549BB"/><path d="M883.7 595.7h3.7a121.7 121.7 0 0 1 31.8 4.2c18.1 4.3 18.1 4.3 25.2 8.5 2.6 1.7 2.6 1.7 6 3a84.8 84.8 0 0 1 13.3 7.3c6.7 4.4 12.7 9.5 18.7 14.9l7.2 6c1.9 1.9 2.5 4 3.4 6.4 2 1.3 2 1.3 4 2v3l1.8.8c5.7 3.2 8.6 10.9 11.4 16.5l1.6 3.3 1.2 2.4h3a41791.3 41791.3 0 0 1 42.4.5c71.4.8 71.4.8 97 3.4a3973.5 3973.5 0 0 0 33.5 3.2 392 392 0 0 1 26.2 3.2c4.5.7 9.1 1.2 13.7 1.7 6.2.7 12.2 1.7 18.3 2.9 4.5.9 9 1.5 13.5 2.1 6 .8 11.9 1.9 17.8 3.2a771.2 771.2 0 0 1 80.8 18l10.8 2.8c10.6 2.5 20.8 5.7 31.2 9.1l9 2.8a895.3 895.3 0 0 1 23 7.4c9.2 3.1 18.3 6.2 27.4 9.5l3 1c6 2.2 11.8 4.6 17.7 7a772.2 772.2 0 0 1 31.1 12.9c5.7 2.5 11.5 5 17.2 7.2 2.4 1.1 2.4 1.1 4.8 2.5 3 1.9 6.3 3.2 9.6 4.6l10.5 5.3c3.5 1.7 7 3.2 10.5 4.7 9.2 4.4 18 9.2 27 14l3 1.6a539 539 0 0 1 17 9.7 1179.7 1179.7 0 0 0 26 14.7v2l2.7.8a39 39 0 0 1 8.6 4.5l2.9 1.8a918055596.2 918055596.2 0 0 0 14.2 9.4c3.5 2 6.8 4.4 10.1 6.8 2.4 1.7 5 3.2 7.5 4.7l4.8 3 2.4 1.6 1.8 1.4v2l1.7.3c3 1 5.2 2.6 7.7 4.6 2.8 2 5.4 4 8.4 5.7 2.2 1.4 2.2 1.4 3.2 3.4l5 3a315.2 315.2 0 0 1 9 6.3 59 59 0 0 1 8 6.7c3.3 2.8 3.3 2.8 7 5v2l1.7.8c2.7 1.4 4.9 3.2 7.2 5.1l3 2.4 6.6 5.7 1.8 1.5 3.5 3c2.9 2.5 2.9 2.5 6.2 4.5v2l1.7.7c3 1.7 5.2 3.8 7.7 6.2a118.4 118.4 0 0 0 10.6 9.1v2l1.6.7c4.5 2.5 8 5.7 11.3 9.7 2 2.5 4.2 4.6 6.6 6.7 5.3 4.5 10.2 9.5 15.1 14.4l2.8 2.8c3.8 3.8 7.6 7.5 11 11.7 2 2.4 3.9 4.2 6.3 6.1 3 2.4 4 4.3 5.3 7.9l4 2 1 3h2l3 3.2 1.8 2.2 2.2 2.6a3813.5 3813.5 0 0 0 7 8.3c2.2 2.6 4.3 5 6.8 7.4 2.2 2.3 2.2 2.3 3.2 5.3l3.4 3.4c6.4 6.3 11.8 13.3 17.2 20.4a303.9 303.9 0 0 1 18 23.7c2.8 4.1 5.9 8.2 8.9 12.2 1.4 2.2 2 3.8 2.5 6.3h2c1.4 2 2.6 4 3.9 6.2 1.9 3.2 3.7 6.4 6.1 9.3 2 2.4 3.5 5 5 7.7l5.3 9a9777.1 9777.1 0 0 1 6.6 11c3.7 6.2 7 12.7 10.3 19.2a198 198 0 0 0 6 10.8 203.8 203.8 0 0 1 13.6 28l1.1 2.4 3.1 6.9c4.8 10.6 9.3 21.1 12.9 32.3l3 7.9c2.2 5.5 4.2 11.2 6 16.9l1 3.1c4.7 14 8.7 28 12.1 42.3l.7 2.9a637.5 637.5 0 0 1 13.6 79.2 304 304 0 0 1 2.1 40.9V1462.4A449.4 449.4 0 0 1 2038 1570c-.8 4.5-2 9-3.2 13.3l-1.5 7.2c-1.6 8.4-4.6 16.4-7.2 24.5l-1.3 4.1c-2.7 8-5.6 16-8.7 23.9l-1.2 3a292 292 0 0 1-12.9 27.3c-2 3.9-4.2 7.6-6.5 11.3-3 5-5.8 10.1-8.4 15.4h-2l-.6 2.4a45.5 45.5 0 0 1-7.4 12.6h-2l-.8 2.2c-1.3 3-2.8 5.4-4.7 8l-1.8 2.7c-1.7 2.1-1.7 2.1-3.7 3.1l-1.3 2.1c-2.2 3.7-4.8 6.7-7.6 9.9l-3.2 3.6-1.5 1.8c-1.3 1.4-2.5 3-3.7 4.5l-1.7 2.1h-2l-.2 1.7c-1.1 3.3-3.3 5-5.8 7.3l-2.3 2.9a49 49 0 0 1-6.6 6.5 66.3 66.3 0 0 0-7.7 7.7 64 64 0 0 1-9.4 8.9 122 122 0 0 0-9.3 8.4c-1.7 1.6-1.7 1.6-3.7 1.6l-.7 1.7c-1.8 3-4 4.8-6.8 7l-3 2.5c-2.5 1.8-2.5 1.8-4.5 1.8v2l-1.9.8c-2.4 1.2-2.4 1.2-4.1 4.2l-5 3-7.8 6c-4 3-4 3-6.2 3l-1 3a83 83 0 0 1-5 3l-5 3.5a628.6 628.6 0 0 0-16.7 11.2 18.7 18.7 0 0 1-7.3 2.3v2l-6.1 4-1.8 1a156 156 0 0 1-11.1 6l-6 3.5c-4.2 2.5-8.4 4.6-13 6.5l-14.5 7.3c-10 5-20.2 9.8-30.8 13.5a75.1 75.1 0 0 0-9.5 4.2c-4.8 2.4-9.7 4-14.8 5.6-7.2 2.2-7.2 2.2-14.2 5a68.3 68.3 0 0 1-9.4 3.2l-15.1 4.4a482 482 0 0 1-71.5 16.2l-9 1.5c-32 5.8-64.2 6.6-96.7 6.7h-8.4c-23.4 0-46.3-1.1-69.5-4.1-4.8-.7-9.6-1.1-14.3-1.6-7-.7-13.7-1.8-20.5-3.2a194 194 0 0 0-11-1.7c-5.5-.7-10.6-1.9-15.9-3.3-3-.7-6-1.2-9-1.7-4.7-.7-9.3-1.8-14-3.2-2.5-.7-5-1.2-7.6-1.7a206.7 206.7 0 0 1-21.8-5.6l-2.9-.8-10.5-2.8c-7.8-2-15.4-4.4-23.1-6.9l-2-.7c-11.7-3.7-11.7-3.7-16.4-5.8-3.4-1.4-6.8-2.6-10.3-3.7-4-1.3-7.8-2.8-11.7-4.2l-2.6-1c-5.7-2-11.4-4.3-17-6.6l-2.3-.9c-6-2.3-11.9-5-17.8-7.6l-9.9-4a114 114 0 0 1-12.5-5.7l-2.2-1.1-5.3-2.7c.6-3.1.8-3.8 3.4-6l3.2-2 3.5-2.4 2-1.2a292.6 292.6 0 0 0 23.3-18.3c1.6-1.1 1.6-1.1 4.6-1.1l.6-1.8c1.5-2.4 3.2-3.5 5.6-5 3-2 5.4-4.3 8-6.7 1.8-1.5 1.8-1.5 4.8-2.5l2-2 2-2h2l1-3c1.4-1.2 1.4-1.2 3.3-2.5 3.8-2.8 7.4-5.7 11-8.8l12.1-10.1c4.4-3.6 8.7-7.2 13-11l1.8-1.4c2.5-2.1 4.8-4.2 7-6.6 1.8-1.6 1.8-1.6 4.2-1.5 2.6.9 2.6.9 4.8 2.3a29 29 0 0 0 6.7 3c4.1 1.2 8.1 2.8 12.2 4.4a402.2 402.2 0 0 0 41.5 14.6 643.4 643.4 0 0 0 73.7 18.6c4.7 1 9.4 1.8 14 2.5l15 2.5a235 235 0 0 0 19.5 2.5l3.5.4a1735.9 1735.9 0 0 0 16.6 1.6c15 1.6 30 2 45.2 2h3.8c46.7-.1 93-6.4 137.2-21.8l8.3-2.8c6-2 11.8-4.4 17.6-6.9l2.3-1a347.3 347.3 0 0 0 51.7-28 22 22 0 0 1 9-4v-2l4-2.8c7.5-4.8 14.3-10.3 21.1-16 3.3-2.8 6.5-5.5 9.9-8 3.3-2.6 6.1-5.3 9-8.2l2.4-1.8c4.6-4 8.4-8.7 12.2-13.4 2.4-2.8 4.7-5.3 7.4-7.8h2l.7-1.6c1.7-3.1 4-5.7 6.2-8.4 3.5-4 3.5-4 6.8-8.4l1.3-1.6h2l.3-1.7c1-3 2.5-4.8 4.5-7.2a115.9 115.9 0 0 0 10.5-14.4 464 464 0 0 0 18.5-29.7 281.4 281.4 0 0 0 17.2-34l1.5-3.3a174 174 0 0 0 6.8-17.6 133.7 133.7 0 0 0 8.1-24.8l2-7.7a341 341 0 0 0 8.6-50.6l.3-3c.9-9 .9-18 .9-27v-2.5a254.2 254.2 0 0 0-2.9-42.7 221.8 221.8 0 0 0-5.3-32 419.3 419.3 0 0 0-14-51.8l-.8-2.7c-1.2-3.5-2.4-7-4-10.3-2.3-5-4-10.2-5.8-15.4-1.7-5-3.8-9.8-6-14.6a496 496 0 0 1-4.2-9.4l-1.4-3.2-2.9-6.6-1.4-3.2-1.2-3a83.7 83.7 0 0 0-4.3-7.6 174.2 174.2 0 0 0-12-23.9 390.1 390.1 0 0 0-29.3-49.5l-8-12c-1.7-2.6-1.7-2.6-1.7-4.6h-2a133.3 133.3 0 0 1-6.8-10.6l-1-1.8c-1.3-1.7-2.7-3.1-4.2-4.6l-3-3.9-1.7-2.2-1.8-2.3-1.8-2.4-4.7-6.2-1.7-2.1c-1.3-1.9-1.3-1.9-1.3-3.9l-3-1-.4-2-.6-2-1.7-.7c-3.3-1.8-5.3-4.6-7.6-7.4l-3-3.6-1.4-1.7-5.2-6-5.7-6.8c-2.4-2.8-4.8-5.3-7.4-7.8-7.6-7.5-7.6-7.5-11-11.6a86.4 86.4 0 0 0-12.6-11.7c-2.7-2.2-5-4.4-7.2-7-3-3.8-6.6-6.4-10.4-9.2l-1.8-1.5v-2l-1.6-.7c-3-1.6-5.5-3.7-8.2-5.8l-3-2.4-2.2-2.1v-2l-2.2-.7c-3.4-1.6-5.2-3.7-7.8-6.3-2.3-2-4.6-3.7-7-5.6l-1.7-1.4a117 117 0 0 0-8.7-6.2c-2.6-1.8-2.6-1.8-3.6-3.8l-4-2v-2l-2.2-.8c-3-1.3-5.4-2.8-8.1-4.7l-2.7-1.8-2-1.7v-2l-2.1-.8a47.3 47.3 0 0 1-8.8-5.2l-3.4-2.4-1.8-1.3a738.1 738.1 0 0 1-20-13.4c-6.7-4.5-13.5-8.7-20.5-12.8l-8.2-5.1c-3-2-3-2-5.2-3v-2l-2.2-.3c-3-.7-5-1.8-7.5-3.4l-2.6-1.6-2.7-1.7a217 217 0 0 0-20-11v-2l-2.2-.3c-3.1-.8-5.5-2-8.4-3.5l-3.3-1.7-3.5-1.9-7.3-3.8-1.9-1c-6.7-3.5-13.6-6.8-20.4-10l-16.9-8.2c-5.3-2.7-10.6-5.3-16.1-7.6l-2.8-1.2a2768.3 2768.3 0 0 0-15.2-6.3l-3-1.3-6-2.5c-6.3-2.7-12.8-5.1-19.4-7.4l-8-3c-7.5-3.1-15.1-5.6-22.8-8.2a16097.2 16097.2 0 0 1-26-8.9l-3.4-1.1c-4.8-1.6-9.7-2.8-14.5-4l-12.3-3.6c-6.6-2-13.2-3.7-19.9-5.2-3-.6-5.9-1.4-8.8-2.3a76.9 76.9 0 0 0-14-3.2l-2-.4c-6.6-1.3-13.3-2.7-19.9-4.4-8.4-2-16.7-3.7-25.2-5-4-.5-7.8-1.2-11.7-2a220.9 220.9 0 0 0-21.3-3.2l-2.8-.4-9.3-1.3c-58.1-8.3-117.1-8.6-175.7-8.1l-.7 2a86 86 0 0 1-8 16l-1.3 2c-4 6-8.3 11.6-13 17l-2.2 2.6A115 115 0 0 1 969 863h-2v2c-7.2 5.4-15.9 9.1-24 13l-2.9 1.4A144.3 144.3 0 0 1 833 881l-3.5-1.3c-6.3-2.6-12.4-5.5-18.5-8.7v-2l-2.4-.6A45.5 45.5 0 0 1 796 861v-2l-5-2v-2l-1.6-.7c-5.5-3-9.5-7.4-13.5-12.1l-8.1-9a1296.1 1296.1 0 0 0-8.2-12.4c-5-8-9.4-15.9-12.6-24.8l-.7-2A150.4 150.4 0 0 1 769 651h2l.2-1.7c1.1-3.3 3.3-5 5.8-7.3l2.5-2.5 2.5-2.5 2.2-2.3a139.2 139.2 0 0 1 76.5-37.2c7.7-1.4 15.1-1.8 23-1.8Z" fill="#7549BC"/><path d="m305 904 .7 3.6a949.4 949.4 0 0 0 16.8 71.5 746.3 746.3 0 0 0 11.5 41.2c4 13.1 4 13.1 4 18.7h-2l-1 3-6 4-6.2 4.6-3 2.3c-2.2 1.6-4 3.2-5.8 5.1-5.5 5-5.5 5-8 5l-.6 1.6c-2 3.5-5 5.7-8 8.2a27370.1 27370.1 0 0 0-7.4 6.2 93 93 0 0 0-12.4 12.2c-2.4 2.7-5 4.9-7.7 7.2-4.9 4.2-9 9-13.3 13.7l-5.6 6a224 224 0 0 0-17 19.9h-2l-2 5h-2l-.6 2a32.2 32.2 0 0 1-6 8.4c-1.6 1.7-1.6 1.7-3.4 4.6h-2c0 .6-.2 1.1-.3 1.7-.9 3-2.4 4.6-4.3 6.9-3.8 4.5-7 9.3-10 14.3l-1.4 2.1h-2l-.8 2.2a51.7 51.7 0 0 1-4.4 8l-1.9 3a222 222 0 0 1-5.4 7.6 96 96 0 0 0-8 14.2c-1.9 3.8-3.9 7.3-6.2 11-5.3 8.4-9.5 17.4-13.6 26.5a97.7 97.7 0 0 1-3.8 7.2c-1.5 2.6-2.7 5-3.8 7.9l-5 12.2a245.9 245.9 0 0 0-12.7 35.3c-4.2 12.5-7.7 25-10.4 37.9l-.6 3a361 361 0 0 0-6 105.1c1.7 30.8 9.5 61 19.6 89.9l.7 2c6.2 17.7 14 34.5 22.4 51.3l3.5 7a184 184 0 0 0 8 14.1c1.4 2.6 1.4 2.6 1.4 5.6h2a261.1 261.1 0 0 0 11.3 18l1.3 2c1.7 2.5 3.3 4.9 5.4 7v3l3 1c1.5 1.7 1.5 1.7 3 3.8l1.5 2 1.5 2.2 1.7 2.1c1.3 1.9 1.3 1.9 1.3 3.9l3 1c1.5 1.7 1.5 1.7 3 3.8a50 50 0 0 0 5.4 6.6l1.6 1.6v2l2 .8c2 1.2 2 1.2 3 4.2l2 1 2 1 1 3 4 2a87 87 0 0 1 8.3 7.4 189.8 189.8 0 0 0 32.3 25c6.6 4.5 13.2 9 20.4 12.6v2l2.5.8c3.8 1.3 7.2 3 10.8 5a3583.5 3583.5 0 0 0 5.9 3.2c6.2 3.4 12.5 6.4 19 9a331.5 331.5 0 0 0 34.9 13.2 242.5 242.5 0 0 0 30.4 8.4c23.8 6 47.7 10.4 72.2 12.1l11 1a568.1 568.1 0 0 0 129.6-1.4 589.8 589.8 0 0 0 41-5.4c7-1.2 13.9-2.6 20.8-4.2a145 145 0 0 1 8.5-1.7c4.6-.8 9-2 13.4-3.2 2.5-.7 5-1.2 7.6-1.7 5.7-1.1 11.2-2.6 16.7-4.1l3-.8c5.2-1.4 5.2-1.4 10.2-3.2 2.3-1 4.3-1.5 6.7-2 5-1 9.9-2.7 14.7-4.4 6-2.2 11.9-4.2 18-6 2.3-.6 2.3-.6 5.1-2.1 2.6-1.3 4.8-2 7.6-2.9 6-1.7 11.7-4.1 17.4-6.6a2585.1 2585.1 0 0 1 9.8-4l2.4-1 13-6.1c2.9-1.5 5.9-2.7 8.8-3.9 6.3-2.7 12.5-5.6 18.7-8.5l2.5-1.1c4.5-2.2 8.6-4.6 12.8-7.4l5-2.1c4.4-2 8.5-4.4 12.8-6.7l5.6-3a469460798.1 469460798.1 0 0 1 14.3-7.9c2-1.1 3.8-2.3 5.7-3.7 2.6-1.6 2.6-1.6 6.6-1.6v-2l2-1.1a367.5 367.5 0 0 0 26.4-15.3l2-1.2c4.9-3 9.7-6 14.4-9.2 2.2-1.2 2.2-1.2 5.2-1.2v-2c1.8-1.3 1.8-1.3 4.4-2.7 4.6-2.7 9-5.6 13.3-8.7l7.3-4.6 7.2-4.8 2-1.3c4.6-3 9.2-6.2 13.7-9.5 2.1-1.4 2.1-1.4 4.8-2.4l2.3-1 1-3 5-3 4.5-3.5c3-2.4 6.1-4.5 9.5-6.5l2-2h3l.7-1.7c1.7-3 4-4.5 6.8-6.5l3-2.2c2.5-1.6 2.5-1.6 4.5-1.6l1-3 3-1 2-2 2-2h2v-2l3.7-3c4.1-3 8.1-6.3 12-9.6l1.7-1.4c2.6-2.2 5-4.4 7.3-6.8 2.3-2.2 2.3-2.2 5.3-2.2l.7-1.7c1.6-2.8 3.4-4.4 5.8-6.5l2.7-2.4 2.8-2.4 5.2-4.7 8.5-7.4c3-2.5 5.3-5.2 7.7-8.1 2.4-2.6 5-4.9 7.7-7.2 2.4-2 4.7-4.3 6.9-6.6l2.3-2.2c3.1-3.2 6.1-6.6 9.1-10l5.5-6a278 278 0 0 0 16.4-18.9l1.7-1.9h2l.7-1.6c1.8-3.3 4.3-6 6.9-8.9 4.7-5.4 9-11 13.3-16.7l6.2-8c3.4-4.1 6.5-8.5 9.5-13l1.4-1.8h2c0-.6.2-1.1.3-1.7 1-3 2.6-4.8 4.7-7.3 5.5-7.6 10.7-15.5 15.9-23.3l4.4-6.6 6.4-10 4.4-6.7c1.6-2.4 3-4.7 4.3-7.3 1.5-2.9 3.1-5.5 5-8.2 3-4.8 5.6-9.7 8-14.8a284 284 0 0 1 13.4-23.7c2.5-4.3 2.5-4.3 3.2-9.2a19 19 0 0 0-4.1-5.9 133 133 0 0 1-27.1-46.4c-13-34.7-11.7-75 3.2-108.9 5-10.7 10.6-20.8 18-30l2.1-2.8c5.2-6.4 10.6-12.7 16.9-18.2h2l1-3c1.9-1.7 1.9-1.7 4.3-3.5l2.3-1.8c2.4-1.7 4.9-3.2 7.4-4.7l5.4-3.5c4-2.6 8-4.7 12.6-6.5a565.5 565.5 0 0 0 12.6-5.6c3-1.2 6-2.1 9.1-2.9l5-1.3 3.1-.8 2.8-.7c9.7-2 19.7-1.9 29.6-1.9h2c31 .1 64.7 8.3 88.8 29.2v2l2.2.7c3.4 1.6 5.2 3.6 7.8 6.3l2.4 1.8c3 2.5 5.4 5.3 8 8.3 1.5 2 1.5 2 3.3 3.5 1.3 1.4 1.3 1.4 1.3 4.4l1.8.8c6.8 3.9 10.7 14.5 14.2 21.2l1 2a149 149 0 0 1-13 155l-2 3h-2l-.7 2.2c-1.6 3.4-3.6 5.2-6.3 7.8l-1.8 2.4a53.2 53.2 0 0 1-9 8c-2.1 1.5-2.1 1.5-3.6 3a95.4 95.4 0 0 1-26.5 17.1c-3 1.4-3 1.4-5.6 3-8.3 4.9-18.1 7-27.4 9.3l-2.6.7a55 55 0 0 1-15.5 1.5l-1 3.5c-3.9 11.6-10.4 22.4-16.4 33-2.3 4.2-4.5 8.3-6.6 12.6-5.6 11.4-12.5 22.2-19.2 33l-9.2 15.3-6.9 10.9-3.2 5.2c-2 3.5-4.4 6.7-6.8 10a95.4 95.4 0 0 0-3.2 5c-2.1 3.5-4.5 6.8-6.9 10.1-1.4 2-2.5 4.1-3.6 6.4h-2l-.8 2.2c-1.3 3-3 5.2-5.2 7.8l-4.6 7.8-1.4 2.2h-2l-.8 1.6c-1.5 3-3.2 5.7-5.2 8.4h-2l-.3 1.8c-.8 2.5-1.8 3.4-3.7 5.2l-1 3-4 4-3 4c-2.1 3-4.4 5.4-7 8l-2 4-3 3-1 2h-2l-.7 1.7a47.1 47.1 0 0 1-5.6 7.7l-2.4 2.9-2.3 2.7-1.6 2-3.4 4h-2l-.2 1.7c-1.1 3.3-3.3 5-5.8 7.3l-2.5 3a105.6 105.6 0 0 1-11.4 11.8l-1.8 1.8c-2 2-3.7 4-5.4 6-3.9 4.5-8 8.6-12.2 12.8l-2.3 2.3a4556.5 4556.5 0 0 1-17 17l-2.2 2.2c-4 4-8.1 7.9-12.4 11.6l-7.8 7-12 10.8-6.9 6.1c-4 3.7-8.1 7-12.4 10.4l-9 7.6c-5.2 4.5-10.6 8.6-16 12.6-2.4 1.8-4.6 3.6-6.8 5.6-2.9 2.4-2.9 2.4-5.9 2.4v2c-2 1.6-4.2 3.1-6.4 4.6l-1.8 1.3c-4.5 3.1-4.5 3.1-6.8 3.1l-1 3c-2.3 1.6-4.5 3.1-7 4.6-4.7 2.8-4.7 2.8-9 6.4h-3v2c-1.7 1.3-1.7 1.3-3.9 2.6l-2.2 1.4c-1.9 1-1.9 1-3.9 1v2l-5 1v2c-1.8 1.3-1.8 1.3-4.4 2.7a132 132 0 0 0-13.3 8.9 17 17 0 0 1-7.3 2.4v2l-1.6.9a454 454 0 0 0-19.8 11.6c-5.5 3.4-11.1 6.3-17 9.1-3 1.6-5.8 3.4-8.6 5.4-4.2 2.5-8.4 4.8-12.9 6.7-3.2 1.2-3.2 1.2-6.1 3.3h-4v2l-2.2 1-3 1.3-3 1.3a90 90 0 0 0-7.8 4.4l-7 3c-6 2.5-6 2.5-11.6 5.6a44.3 44.3 0 0 1-7.8 3.4c-3.4 1.3-6.7 2.9-10 4.4-5 2.4-10 4.6-15 6.6l-9 3.8c-6.5 2.8-13 5.2-19.8 7.4-7 2.5-14 5.2-20.8 8-4.8 2-9.7 3.7-14.7 5.1l-9.1 3-1.9.6-8.8 3c-14.6 4.9-29.3 9.6-44.3 13.3-5.3 1.3-10.4 2.8-15.6 4.2-15.7 4.2-31.4 8-47.4 11.2l-14.8 3-3.1.6c-4.9 1-9.6 2.2-14.3 3.8l-5.6 1c-4.2.6-8.3 1.4-12.5 2.4-7 1.7-14.3 2.8-21.5 4-3.3.4-6.5 1-9.8 1.7-6.6 1.2-13.3 1.7-20 2.3l-13.6 1.3c-19.8 2.1-39.3 2.8-59.1 2.7h-12.2a569.1 569.1 0 0 1-71.5-4.2 320 320 0 0 1-31.7-4.5c-3.6-.7-7.1-1.2-10.8-1.7-5.4-.7-10.5-1.9-15.8-3.3-2.9-.7-5.7-1.2-8.6-1.6-11-1.8-21.7-4.8-32.2-8.2-3-.9-6-1.6-9-2.3-3.8-1-7.6-2.3-11.4-3.5l-2.5-.8-19.2-6.3-2.5-.9c-8.6-3-17-6.6-25.3-10.2l-8.6-3.5c-5.1-2.1-10-4.6-15-7l-6.1-2.9c-8.1-3.5-15.8-7.6-23.3-12.2-2.3-1.4-2.3-1.4-5.2-2.8a139 139 0 0 1-10-5.7l-6.6-4c-6.6-3.8-13-7.8-19.3-12.3-2.2-1.6-2.2-1.6-4.9-3l-2.2-1.5v-2l-2.1-.7c-3.4-1.5-6-3.4-9-5.7l-3-2.3c-2.5-2-4.7-4-6.9-6.3l-4-2-3-3-3.6-3.1-12.1-10.9c-2.2-2-2.2-2-4.6-3.6l-1.7-1.4v-2l-2-.8c-2-1.2-2-1.2-3-4.2l-2-1c-2-1-2-1-3-4l-4-2c-2-1.9-2-1.9-4-4.3l-2.4-2.6a2415.2 2415.2 0 0 1-16-18.8c-3.6-4-3.6-4-3.6-7.3l-3-1-4.2-6-2.2-3.2C84 1732 84 1732 84 1730l-3-1c-1.8-2.7-1.8-2.7-3.7-6l-1.9-3.2C74 1717 74 1717 74 1715h-2l-.8-1.5-7.5-13a311.3 311.3 0 0 1-13.6-26.3 206.7 206.7 0 0 1-11.3-25.6L35 1639l-1.4-3.5-1.3-3.3-1.1-3c-1.3-3.4-2.3-7-3.4-10.5l-3.3-10.5a402.5 402.5 0 0 1-13.6-50.3c-1.1-4.4-1.7-8.9-2.3-13.4l-2-10.2c-2.1-10-3.1-20.3-4.2-30.5l-.9-7.7a269.6 269.6 0 0 1-1.9-39 3326.9 3326.9 0 0 1 0-23c-.2-22.6.5-44.6 4-67 .6-4.2 1-8.5 1.5-12.7.7-6.2 1.8-12.1 3.2-18.1A436 436 0 0 1 28 1258l.6-2a470.3 470.3 0 0 1 16.9-44l1.3-3 2.5-6a239.3 239.3 0 0 1 11.2-24l6.4-12.8 2.6-5.3a429 429 0 0 1 15-26.5l3.4-5.9c2.2-3.9 4.8-7.4 7.4-11a536.9 536.9 0 0 1 11.9-18.5l1.3-2c1.1-1.8 2.3-3.4 3.5-5h2l.8-2.2a44.5 44.5 0 0 1 6.5-10.8l1.7-2h2l.2-1.7c1-3 2.8-5 4.9-7.4l2.4-3 2.5-2.9 3.9-4.9c3.6-4.5 7.2-8.8 11-13.2l8.7-10.5c3.2-4 6.5-7.8 9.8-11.6l2.5-2.8c2.1-2 2.1-2 4.1-2l.8-2c1.2-2 1.2-2 4.2-3l2-4c3-4 6.3-7.2 10.2-10.4a56 56 0 0 0 5.3-5.6c3.2-3.7 6.5-7.2 10.5-10h2l.8-2c1.2-2 1.2-2 4.2-3a567 567 0 0 0 2-4c6.4-6.6 13.9-12.2 21-18l6-4.8 2.6-2.2c2.4-2 2.4-2 4.6-4.3 1.8-1.7 1.8-1.7 3.8-1.7l1-3a118.4 118.4 0 0 1 8-6.3l5-3.7 2.3-1.8c1.7-1.2 1.7-1.2 3.7-1.2l1-3c2-.7 2-.7 4-1v-2a146 146 0 0 1 10.6-7.6l1.8-1.2c1.7-1.3 3.1-2.7 4.6-4.2 4.4-3 4.4-3 8-3Z" fill="#7549BC"/></svg>