<?xml version="1.0" encoding="UTF-8"?>
<svg version="1.1" xmlns="http://www.w3.org/2000/svg" width="225" height="225">
<path d="M0 0 C74.25 0 148.5 0 225 0 C225 74.25 225 148.5 225 225 C150.75 225 76.5 225 0 225 C0 150.75 0 76.5 0 0 Z " fill="#797979" transform="translate(0,0)"/>
<path d="M0 0 C57.09 0 114.18 0 173 0 C163.97297297 19.18243243 163.97297297 19.18243243 160.5 25.5 C157.48308263 31.09017043 154.66123484 36.7322241 152 42.5 C149.00033235 49.00127173 145.75016323 55.32222253 142.35546875 61.625 C139.74017119 66.51407861 137.32270072 71.46593948 135 76.5 C132.33862154 82.26808718 129.51226726 87.90716804 126.5 93.5 C122.34774932 101.21042665 118.5772648 109.06680364 114.93212891 117.02807617 C113.66587117 119.70685138 112.32508454 122.34983091 111 125 C86.91 125 62.82 125 38 125 C38 124.34 38 123.68 38 123 C37.34 123 36.68 123 36 123 C36 123.66 36 124.32 36 125 C72.63 125.495 72.63 125.495 110 126 C110 126.33 110 126.66 110 127 C73.7 127 37.4 127 0 127 C0 85.09 0 43.18 0 0 Z " fill="#6E6E6E" transform="translate(0,0)"/>
<path d="M0 0 C29.7 0 59.4 0 90 0 C80.97297297 19.18243243 80.97297297 19.18243243 77.5 25.5 C74.48308263 31.09017043 71.66123484 36.7322241 69 42.5 C66.00033235 49.00127173 62.75016323 55.32222253 59.35546875 61.625 C56.74017119 66.51407861 54.32270072 71.46593948 52 76.5 C49.33862154 82.26808718 46.51226726 87.90716804 43.5 93.5 C39.34774932 101.21042665 35.5772648 109.06680364 31.93212891 117.02807617 C30.66587117 119.70685138 29.32508454 122.34983091 28 125 C3.91 125 -20.18 125 -45 125 C-45 124.34 -45 123.68 -45 123 C-45.66 123 -46.32 123 -47 123 C-47 123.66 -47 124.32 -47 125 C-10.37 125.495 -10.37 125.495 27 126 C27 126.33 27 126.66 27 127 C-9.3 127 -45.6 127 -83 127 C-83 121.06 -83 115.12 -83 109 C-73.43 109 -63.86 109 -54 109 C-53.34 107.35 -52.68 105.7 -52 104 C-51.39467191 102.78551465 -50.76774831 101.58149333 -50.1171875 100.390625 C-49.75882813 99.72740234 -49.40046875 99.06417969 -49.03125 98.38085938 C-48.45890625 97.32608398 -48.45890625 97.32608398 -47.875 96.25 C-44.73889774 90.40774499 -41.77548081 84.52171456 -39 78.5 C-36.00062007 71.99860091 -32.75015448 65.67776123 -29.35546875 59.375 C-26.74017119 54.48592139 -24.32270072 49.53406052 -22 44.5 C-19.00557162 38.01008352 -15.76222766 31.69952964 -12.37304688 25.40795898 C-8.27555618 17.74832366 -4.64029374 9.88420761 -1 2 C-0.67 1.34 -0.34 0.68 0 0 Z " fill="#C8C8C8" transform="translate(83,0)"/>
<path d="M0 0 C29.7 0 59.4 0 90 0 C80.97297297 19.18243243 80.97297297 19.18243243 77.5 25.5 C74.11491106 31.77237068 71.01393154 38.13132554 68.03051758 44.60302734 C65.24964063 50.58610522 62.20761574 56.40924306 59.05664062 62.20507812 C58.52393555 63.19024414 58.52393555 63.19024414 57.98046875 64.1953125 C57.67004639 64.76266113 57.35962402 65.33000977 57.03979492 65.91455078 C55.56089883 68.88067672 54.30559361 71.95361492 53 75 C11.75 75 -29.5 75 -72 75 C-72 73.35 -72 71.7 -72 70 C-54.675 69.505 -54.675 69.505 -37 69 C-36.505 67.515 -36.505 67.515 -36 66 C-35.34 66 -34.68 66 -34 66 C-33.67 66.33 -33.34 66.66 -33 67 C-32.52691406 65.97003906 -32.05382813 64.94007812 -31.56640625 63.87890625 C-28.06331442 56.31280217 -24.4548495 48.84128597 -20.5 41.5 C-17.15509834 35.2843562 -14.02812453 29.00411764 -11.08984375 22.5859375 C-7.57867531 14.95228111 -3.76773339 7.53546678 0 0 Z " fill="#0E0E0E" transform="translate(72,57)"/>
<path d="M0 0 C0 1.32 0 2.64 0 4 C-1.06959961 4.0093457 -2.13919922 4.01869141 -3.24121094 4.02832031 C-7.2149397 4.06823512 -11.18789544 4.13399721 -15.16113281 4.20751953 C-16.87978169 4.23572067 -18.59856005 4.25693954 -20.31738281 4.27099609 C-22.79038747 4.29243833 -25.26183675 4.33909156 -27.734375 4.390625 C-28.88459137 4.39246796 -28.88459137 4.39246796 -30.05804443 4.39434814 C-33.57712403 4.4906656 -35.61357567 4.70604671 -38.45263672 6.86572266 C-40.35076481 9.48380972 -41.06750859 11.90412852 -42 15 C-43.12986238 17.66212188 -44.37893448 20.26559221 -45.625 22.875 C-46.08326172 23.84953125 -46.08326172 23.84953125 -46.55078125 24.84375 C-50.23895965 32.62828465 -54.14612433 40.29224866 -58 48 C-87.7 48 -117.4 48 -148 48 C-138.9009434 28.66450472 -138.9009434 28.66450472 -135.375 22.25 C-132.67270131 17.32287645 -130.20319837 12.33449157 -127.85791016 7.22558594 C-127.32154938 6.05864197 -126.7851886 4.891698 -126.23257446 3.68939209 C-125.6224501 2.35814301 -125.6224501 2.35814301 -125 1 C-113.91676918 0.82623523 -102.83343783 0.6599861 -91.75 0.5 C-90.92747364 0.48812275 -90.10494728 0.4762455 -89.25749588 0.46400833 C-59.50269513 0.03693427 -29.75814846 -0.13063279 0 0 Z " fill="#000000" transform="translate(225,0)"/>
<path d="M0 0 C5.61 0 11.22 0 17 0 C15.02 4.29 13.04 8.58 11 13 C-27.94 13 -66.88 13 -107 13 C-107 9.37 -107 5.74 -107 2 C-71.69 2 -36.38 2 0 2 C0 1.34 0 0.68 0 0 Z " fill="#696969" transform="translate(107,133)"/>
<path d="M0 0 C38.61 0 77.22 0 117 0 C116 3 116 3 114 4 C113.67 4.99 113.34 5.98 113 7 C75.71 7 38.42 7 0 7 C0 4.69 0 2.38 0 0 Z " fill="#686868" transform="translate(0,147)"/>
<path d="M0 0 C35.31 0 70.62 0 107 0 C107 0.99 107 1.98 107 3 C71.69 3 36.38 3 0 3 C0 2.01 0 1.02 0 0 Z " fill="#A9A9A9" transform="translate(0,132)"/>
<path d="M0 0 C14.19 0 28.38 0 43 0 C40 4 40 4 37.5546875 4.5390625 C36.67039063 4.56742187 35.78609375 4.59578125 34.875 4.625 C32.25986007 4.68439384 32.25986007 4.68439384 30 5 C29.67 5.66 29.34 6.32 29 7 C19.43 7 9.86 7 0 7 C0 4.69 0 2.38 0 0 Z " fill="#686868" transform="translate(0,114)"/>
<path d="M0 0 C16.83 0 33.66 0 51 0 C51 0.99 51 1.98 51 3 C33.84 3 16.68 3 -1 3 C-0.67 2.01 -0.34 1.02 0 0 Z " fill="#787879" transform="translate(174,0)"/>
<path d="M0 0 C14.19 0 28.38 0 43 0 C43 0.33 43 0.66 43 1 C38.38 1 33.76 1 29 1 C29 1.66 29 2.32 29 3 C19.43 3 9.86 3 0 3 C0 2.01 0 1.02 0 0 Z " fill="#929292" transform="translate(0,114)"/>
<path d="M0 0 C3.63 0 7.26 0 11 0 C10.67 0.99 10.34 1.98 10 3 C1.46504986 4.12824155 -7.03453548 4.11663729 -15.625 4.0625 C-17.02473797 4.05747197 -18.4244777 4.05291138 -19.82421875 4.04882812 C-23.21619169 4.03713167 -26.60807233 4.02074086 -30 4 C-30 3.67 -30 3.34 -30 3 C-20.43 3 -10.86 3 -1 3 C-0.67 2.01 -0.34 1.02 0 0 Z " fill="#080809" transform="translate(30,118)"/>
<path d="M0 0 C2.31 0 4.62 0 7 0 C6.01 0.33 5.02 0.66 4 1 C4.33 2.32 4.66 3.64 5 5 C2.03 4.505 2.03 4.505 -1 4 C-0.67 2.68 -0.34 1.36 0 0 Z " fill="#1D1D1E" transform="translate(32,122)"/>
</svg>
