<?xml version="1.0" encoding="UTF-8"?>
<svg version="1.1" xmlns="http://www.w3.org/2000/svg" width="1200" height="1283">
<path d="M0 0 C2.87060547 1.36010742 2.87060547 1.36010742 5.8671875 3.10546875 C6.98738281 3.75193359 8.10757813 4.39839844 9.26171875 5.06445312 C10.46624802 5.77196148 11.67067243 6.47964836 12.875 7.1875 C14.1336436 7.91812966 15.39276536 8.64793618 16.65234375 9.37695312 C19.84234464 11.22622679 23.02601371 13.08608275 26.20739746 14.95013428 C28.86784844 16.50826901 31.53168463 18.06058534 34.1953125 19.61328125 C37.10381971 21.30954598 40.01169254 23.00684429 42.91748047 24.70776367 C50.58221669 29.19056507 58.28529845 33.60405339 66 38 C75.72124506 43.53985933 85.40894868 49.13374932 95.06689453 54.78344727 C105.59084625 60.93766742 116.15380137 67.02369996 126.71777344 73.10888672 C132.14659942 76.23680148 137.57319281 79.36858448 143 82.5 C145.16665583 83.75001879 147.3333225 85.00001878 149.5 86.25 C249.16666667 143.75 348.83333333 201.25 448.5 258.75 C449.57338623 259.3692334 450.64677246 259.9884668 451.75268555 260.62646484 C453.91049803 261.87141282 456.06821353 263.1165289 458.22583008 264.36181641 C463.77716592 267.56552651 469.33036541 270.7659363 474.88671875 273.9609375 C476.02560547 274.61642578 477.16449219 275.27191406 478.33789062 275.94726562 C480.47787488 277.1788484 482.61844226 278.40941886 484.75976562 279.63867188 C486.71224411 280.76290314 488.65398734 281.90606086 490.58257294 283.07080364 C493.02267064 284.44828077 495.2700447 285.57120657 497.82556915 286.65195179 C507.68222447 291.13022825 507.68222447 291.13022825 509.86521912 295.88422179 C511.27762899 301.53100072 510.97715917 307.32708907 510.84570312 313.10229492 C510.85621626 315.04464577 510.87320291 316.98697071 510.89614868 318.92921448 C510.93879151 324.18684136 510.88783893 329.43974223 510.81729317 334.69691634 C510.75684931 340.20338536 510.77461031 345.70966563 510.78161621 351.21638489 C510.78145565 360.45974477 510.72227861 369.7012616 510.62597656 378.9440918 C510.51520177 389.62787342 510.48896327 400.30924471 510.5098691 410.99352568 C510.52878589 421.27906325 510.49652612 431.56377501 510.43797302 441.84914589 C510.41345938 446.22352179 510.40532052 450.59747546 510.41004944 454.97191429 C510.4126871 460.12174369 510.37002366 465.26928346 510.29236984 470.41850853 C510.27089162 472.30741269 510.26463095 474.19656054 510.27472305 476.08555984 C510.33646593 490.36642807 510.33646593 490.36642807 507.02478695 494.41431713 C504.71721392 495.9839988 502.60342889 497.02000999 500 498 C498.95078369 498.63091553 497.90156738 499.26183105 496.82055664 499.91186523 C495.86012451 500.45528564 494.89969238 500.99870605 493.91015625 501.55859375 C492.80978027 502.18386963 491.7094043 502.80914551 490.57568359 503.45336914 C490.00388367 503.77628937 489.43208374 504.09920959 488.84295654 504.43191528 C486.37627275 505.82507455 483.91390715 507.22579131 481.45123291 508.62602234 C480.17649368 509.35075634 478.90154973 510.07513036 477.62640381 510.79914856 C471.35957661 514.35861451 465.11519933 517.95657496 458.875 521.5625 C457.811604 522.17665771 456.74820801 522.79081543 455.65258789 523.42358398 C453.50754426 524.66257782 451.36260574 525.90175366 449.21777344 527.14111328 C443.81329355 530.26324605 438.40652588 533.38141204 433 536.5 C430.8333225 537.74998122 428.66665583 538.99998121 426.5 540.25 C407 551.5 407 551.5 387.5 562.75 C386.42580811 563.36979736 385.35161621 563.98959473 384.24487305 564.62817383 C382.09554585 565.86802723 379.94597219 567.1074535 377.79614258 568.34643555 C372.72165511 571.27163763 367.64978383 574.20111723 362.5866394 577.14590454 C360.19684332 578.5354863 357.80563164 579.92262172 355.41430664 581.30957031 C353.72859411 582.28863253 352.04493413 583.27122606 350.36132812 584.25390625 C348.82702148 585.14335938 348.82702148 585.14335938 347.26171875 586.05078125 C346.36412842 586.57325439 345.46653809 587.09572754 344.54174805 587.6340332 C342.03577675 588.98077313 339.72675409 590.17808238 337 591 C334.15616514 589.80912477 331.79987881 588.58654367 329.1875 587 C328.40761719 586.5464917 327.62773438 586.0929834 326.82421875 585.62573242 C325.1143343 584.62868945 323.40928843 583.6233145 321.70849609 582.61083984 C318.94731386 580.96866566 316.17322779 579.35062314 313.39453125 577.73828125 C309.37016996 575.4013921 305.35112249 573.05574536 301.3359375 570.703125 C294.94718008 566.96365411 288.53883924 563.25874966 282.125 559.5625 C281.04541016 558.94028564 279.96582031 558.31807129 278.85351562 557.67700195 C276.6631748 556.41488483 274.47274498 555.15292215 272.28222656 553.89111328 C266.85340058 550.76319852 261.42680719 547.63141552 256 544.5 C253.83334417 543.24998121 251.6666775 541.99998122 249.5 540.75 C184.5 503.25 119.5 465.75 54.5 428.25 C53.42637207 427.63060547 52.35274414 427.01121094 51.24658203 426.37304688 C49.09128689 425.1295949 46.93601327 423.88610564 44.78076172 422.64257812 C39.77662326 419.75537125 34.7722948 416.8684957 29.76715088 413.98303223 C28.01658759 412.97380896 26.26609589 411.96446164 24.515625 410.95507812 C22.33607835 409.6983234 20.15640168 408.44179414 17.9765625 407.18554688 C12.85326521 404.23106809 7.73618262 401.26642115 2.62841797 398.28515625 C1.56831512 397.66648682 0.50821228 397.04781738 -0.58401489 396.41040039 C-1.38128998 395.94496826 -2.17856506 395.47953613 -3 395 C-3.43074329 420.18245752 -3.72307807 445.36326829 -3.8523407 470.5491581 C-3.9155662 482.24484476 -4.02342587 493.93688578 -4.23779297 505.63085938 C-4.4246094 515.82817449 -4.5262256 526.02224731 -4.52715683 536.22133482 C-4.53058385 541.61963307 -4.5755426 547.01012263 -4.72271729 552.40657425 C-6.32007532 573.74482552 -6.32007532 573.74482552 0.36462784 593.15386391 C5.99158734 598.05989953 12.15537409 600.8085172 19.21536636 603.06335258 C22.89540872 604.30118227 25.8453688 606.04779775 29.1171875 608.12109375 C31.03610652 609.22717308 32.95536872 610.33265727 34.875 611.4375 C37.05990538 612.69659802 39.24480092 613.95571311 41.4296875 615.21484375 C42.51475586 615.83987793 43.59982422 616.46491211 44.71777344 617.10888672 C50.14659942 620.23680148 55.57319281 623.36858448 61 626.5 C63.16665583 627.75001879 65.3333225 629.00001878 67.5 630.25 C80.5 637.75 93.5 645.25 106.5 652.75 C108.11007935 653.6788501 108.11007935 653.6788501 109.75268555 654.62646484 C111.91049803 655.87141282 114.06821353 657.1165289 116.22583008 658.36181641 C121.77716592 661.56552651 127.33036541 664.7659363 132.88671875 667.9609375 C134.02560547 668.61642578 135.16449219 669.27191406 136.33789062 669.94726562 C138.47787488 671.1788484 140.61844226 672.40941886 142.75976562 673.63867188 C144.71245537 674.76302478 146.6544971 675.9061476 148.58350277 677.07066631 C151.01968657 678.44640619 153.26650036 679.57108458 155.81720066 680.65318775 C165.65310939 685.13346425 165.65310939 685.13346425 167.88391948 689.881212 C169.35886661 695.50593314 169.14039667 701.29579903 169.08374023 707.06713867 C169.11883765 709.00643619 169.16015668 710.94562954 169.2071991 712.88467407 C169.31377721 718.13593527 169.32456816 723.38321922 169.31126666 728.6353929 C169.30768913 733.02892784 169.34809462 737.42164348 169.38741547 741.81496984 C169.47832349 752.18786131 169.48841043 762.55873114 169.44995117 772.93188477 C169.41193416 783.60901434 169.51731453 794.27799897 169.69260257 804.95357531 C169.83789819 814.1399557 169.88958411 823.32373684 169.8681789 832.51123601 C169.85657241 837.99018594 169.880347 843.46300679 169.99600029 848.94087791 C170.64139923 882.13731741 170.64139923 882.13731741 164.62132263 890.17645836 C158.99789168 895.09080653 152.8479825 897.83506428 145.77966118 900.07235336 C142.09660979 901.30148527 139.15387334 903.04671828 135.8828125 905.12109375 C133.96389348 906.22717308 132.04463128 907.33265727 130.125 908.4375 C127.94009462 909.69659802 125.75519908 910.95571311 123.5703125 912.21484375 C122.48524414 912.83987793 121.40017578 913.46491211 120.28222656 914.10888672 C114.85340058 917.23680148 109.42680719 920.36858448 104 923.5 C101.83334417 924.75001879 99.6666775 926.00001878 97.5 927.25 C95.89125 928.178125 95.89125 928.178125 94.25 929.125 C58.5 949.75 58.5 949.75 55.24731445 951.62646484 C53.08950197 952.87141282 50.93178647 954.1165289 48.77416992 955.36181641 C43.22283408 958.56552651 37.66963459 961.7659363 32.11328125 964.9609375 C30.40495117 965.94416992 30.40495117 965.94416992 28.66210938 966.94726562 C26.52212512 968.1788484 24.38155774 969.40941886 22.24023438 970.63867188 C20.28807682 971.76271835 18.34666316 972.90570737 16.41843224 974.07032108 C13.97540243 975.44939277 11.72403313 976.57386086 9.16538429 977.65629482 C1.93633838 980.880301 1.93633838 980.880301 -2.84475565 986.87476468 C-4.187273 992.49580276 -3.79958572 998.24857807 -3.58837891 1003.97875977 C-3.57271262 1005.90792667 -3.56386461 1007.83715914 -3.56129456 1009.76638794 C-3.54191451 1013.90965535 -3.47599021 1018.04860116 -3.37379837 1022.19064522 C-3.21382943 1028.742464 -3.16676463 1035.29216564 -3.13607788 1041.84568787 C-3.0616192 1054.57064698 -2.87963763 1067.29287519 -2.6802597 1080.0164032 C-2.42782949 1096.21522255 -2.20304125 1112.41316417 -2.11787164 1128.61383289 C-2.07960067 1135.12610901 -1.97672466 1141.63317683 -1.82355142 1148.14372075 C-1.74094353 1152.19542087 -1.71214105 1156.24623364 -1.69759941 1160.29869461 C-1.67971783 1162.17433243 -1.63942271 1164.04991384 -1.57482719 1165.92452431 C-1.19080611 1177.46442912 -1.19080611 1177.46442912 -3 1182 C-6.91825541 1185.9865391 -10.84728709 1187.81576547 -16 1190 C-18.17468313 1191.2258814 -20.33707772 1192.47409891 -22.48046875 1193.75390625 C-24.71499702 1195.02545846 -26.95071386 1196.29492382 -29.1875 1197.5625 C-31.65817597 1198.96765477 -34.12788106 1200.37451273 -36.59765625 1201.78125 C-37.21775574 1202.13417618 -37.83785522 1202.48710236 -38.47674561 1202.85072327 C-44.70638085 1206.39784056 -50.9175022 1209.97679664 -57.125 1213.5625 C-58.18871826 1214.17681885 -59.25243652 1214.7911377 -60.34838867 1215.42407227 C-62.49309587 1216.66292223 -64.6377088 1217.90193541 -66.78222656 1219.14111328 C-72.18670645 1222.26324605 -77.59347412 1225.38141204 -83 1228.5 C-85.1666775 1229.74998122 -87.33334417 1230.99998121 -89.5 1232.25 C-102.5 1239.75 -115.5 1247.25 -128.5 1254.75 C-129.57419189 1255.37011963 -130.64838379 1255.99023926 -131.75512695 1256.62915039 C-133.90332686 1257.867707 -136.05288698 1259.10390766 -138.20385742 1260.33764648 C-143.30060284 1263.2648392 -148.37975214 1266.21471421 -153.4133606 1269.24905396 C-155.79868125 1270.68501707 -158.19181793 1272.10765308 -160.58569336 1273.52929688 C-162.27782587 1274.54175337 -163.95840861 1275.57343389 -165.63867188 1276.60546875 C-166.66154297 1277.21132812 -167.68441406 1277.8171875 -168.73828125 1278.44140625 C-169.63587158 1278.98482666 -170.53346191 1279.52824707 -171.45825195 1280.08813477 C-174 1281 -174 1281 -176.46826172 1280.36010742 C-177.30373535 1279.91127197 -178.13920898 1279.46243652 -179 1279 C-179.90983643 1278.51370117 -180.81967285 1278.02740234 -181.75708008 1277.52636719 C-182.75118896 1276.95563477 -183.74529785 1276.38490234 -184.76953125 1275.796875 C-185.89294922 1275.15363281 -187.01636719 1274.51039062 -188.17382812 1273.84765625 C-189.38678495 1273.14855234 -190.59967384 1272.44933056 -191.8125 1271.75 C-193.07606103 1271.02454649 -194.33973448 1270.29928874 -195.60351562 1269.57421875 C-204.39931183 1264.52219693 -213.16379738 1259.4170285 -221.91723633 1254.29199219 C-229.58243398 1249.80992366 -237.28527105 1245.39596222 -245 1241 C-254.72124506 1235.46014067 -264.40894868 1229.86625068 -274.06689453 1224.21655273 C-281.32211736 1219.97382721 -288.59354142 1215.7600339 -295.875 1211.5625 C-296.94379395 1210.94632813 -298.01258789 1210.33015625 -299.11376953 1209.6953125 C-303.58072422 1207.12093069 -308.04836421 1204.54774077 -312.51660156 1201.97558594 C-314.87346291 1200.61884742 -317.23006924 1199.26166779 -319.58642578 1197.90405273 C-321.79006869 1196.63453881 -323.99413955 1195.36576732 -326.19873047 1194.09790039 C-344.37443512 1183.62556488 -344.37443512 1183.62556488 -346 1182 C-346.09916211 1178.8803511 -346.13173119 1175.78280359 -346.12304783 1172.66270351 C-346.12420167 1171.6654092 -346.12535552 1170.66811488 -346.12654433 1169.64059952 C-346.12921931 1166.25407142 -346.12468163 1162.8675896 -346.12025452 1159.48106384 C-346.12069004 1157.04656846 -346.12156459 1154.61207312 -346.12284368 1152.17757803 C-346.12462136 1146.86148036 -346.1232639 1141.5453969 -346.11920547 1136.22930145 C-346.11318737 1128.3243786 -346.11286809 1120.41946282 -346.11374746 1112.51453809 C-346.11506353 1099.21924842 -346.11171175 1085.9239637 -346.10573006 1072.62867546 C-346.09981974 1059.45836297 -346.09596547 1046.28805253 -346.09487724 1033.11773872 C-346.0948085 1032.29986286 -346.09473976 1031.481987 -346.09466894 1030.63932703 C-346.09433062 1026.48600949 -346.09402923 1022.33269195 -346.09374207 1018.1793744 C-346.0916398 988.73603661 -346.08489728 959.29270151 -346.07543945 929.84936523 C-346.06626 901.23966486 -346.05917395 872.62996522 -346.05493164 844.02026367 C-346.05480011 843.13890221 -346.05466859 842.25754075 -346.05453308 841.34947136 C-346.05321459 832.49874503 -346.05193877 823.6480187 -346.05069422 814.79729236 C-346.04815778 796.76619312 -346.04533653 778.73509392 -346.04234314 760.70399475 C-346.04220585 759.87489358 -346.04206856 759.0457924 -346.04192711 758.19156695 C-346.03272129 702.79437683 -346.01685475 647.39718825 -346 592 C-349.74748914 594.13984879 -353.49478232 596.28004029 -357.24191284 598.42051697 C-358.51021342 599.14495056 -359.77856275 599.8692988 -361.04696655 600.59355164 C-372.97939526 607.40705304 -384.88492707 614.26643475 -396.78222656 621.14111328 C-402.18670645 624.26324605 -407.59347412 627.38141204 -413 630.5 C-415.1666775 631.74998122 -417.33334417 632.99998121 -419.5 634.25 C-458.50000001 656.75 -458.50000001 656.75 -461.75390625 658.62719727 C-463.9076172 659.86976019 -466.06126367 661.11243489 -468.21484375 662.35522461 C-473.23684262 665.25314623 -478.25942807 668.15003349 -483.28442383 671.04275513 C-485.05045522 672.05947198 -486.81627431 673.07655658 -488.58203125 674.09375 C-490.78734155 675.36400873 -492.99304216 676.63359018 -495.19921875 677.90234375 C-496.20597656 678.48242188 -497.21273437 679.0625 -498.25 679.66015625 C-499.21679688 680.2133252 -500.18359375 680.76649414 -501.1796875 681.33642578 C-503.06487155 682.44841021 -504.92505332 683.60387245 -506.7578125 684.80029297 C-507.62148438 685.35990723 -508.48515625 685.91952148 -509.375 686.49609375 C-510.12523437 687.00197021 -510.87546875 687.50784668 -511.6484375 688.02905273 C-514.85552376 689.35324107 -516.6803898 688.90972646 -520 688 C-522.65527344 686.74755859 -522.65527344 686.74755859 -525.359375 685.1484375 C-526.88884766 684.25415039 -526.88884766 684.25415039 -528.44921875 683.34179688 C-529.53847656 682.69275391 -530.62773438 682.04371094 -531.75 681.375 C-532.90697352 680.69497822 -534.06453713 680.01595953 -535.22265625 679.33789062 C-537.62665148 677.92932676 -540.02805773 676.51649359 -542.42773438 675.10058594 C-547.9283488 671.85983022 -553.46603409 668.68333677 -559 665.5 C-561.16684034 664.25030108 -563.3335065 663.00030011 -565.5 661.75 C-566.5725 661.13125 -567.645 660.5125 -568.75 659.875 C-589.33333333 648 -609.91666667 636.125 -630.5 624.25 C-631.57378906 623.6305249 -632.64757812 623.0110498 -633.75390625 622.37280273 C-635.9076172 621.13023981 -638.06126367 619.88756511 -640.21484375 618.64477539 C-645.23684262 615.74685377 -650.25942807 612.84996651 -655.28442383 609.95724487 C-657.05045522 608.94052802 -658.81627431 607.92344342 -660.58203125 606.90625 C-662.78734155 605.63599127 -664.99304216 604.36640982 -667.19921875 603.09765625 C-685.37487019 592.62512981 -685.37487019 592.62512981 -687 591 C-687.09777019 588.43281803 -687.12995016 585.89256084 -687.12025452 583.32493591 C-687.12110894 582.51145457 -687.12196337 581.69797322 -687.12284368 580.85984093 C-687.12450097 578.11283759 -687.11897306 575.36589427 -687.11352539 572.61889648 C-687.11324355 570.65818279 -687.1134012 568.697469 -687.1139679 566.73675537 C-687.11425598 561.39606666 -687.10835752 556.05540019 -687.10139394 550.71471667 C-687.09516218 545.13997684 -687.09455674 539.56523655 -687.09336853 533.99049377 C-687.09025469 523.42593909 -687.08204059 512.86139469 -687.07201904 502.29684454 C-687.06085955 490.2728677 -687.05534787 478.24889039 -687.05032361 466.22490966 C-687.03985801 441.48326739 -687.02225755 416.74163427 -687 392 C-686.21463867 391.55197021 -685.42927734 391.10394043 -684.62011719 390.64233398 C-681.64524653 388.94487436 -678.67067451 387.24689358 -675.69628906 385.54858398 C-674.42036264 384.82019197 -673.14432491 384.09199489 -671.86816406 383.36401367 C-663.55259401 378.62021012 -655.26028769 373.83969488 -647 369 C-637.7707068 363.59862506 -628.50007297 358.27348759 -619.20898438 352.97949219 C-611.11255867 348.36497196 -603.04193491 343.70904745 -595 339 C-586.36502443 333.94369077 -577.69393681 328.95392878 -569 324 C-559.27875494 318.46014067 -549.59105132 312.86625068 -539.93310547 307.21655273 C-529.40915375 301.06233258 -518.84619863 294.97630004 -508.28222656 288.89111328 C-502.85340058 285.76319852 -497.42680719 282.63141552 -492 279.5 C-489.83334417 278.24998121 -487.6666775 276.99998122 -485.5 275.75 C-484.4275 275.13125 -483.355 274.5125 -482.25 273.875 C-375 212 -267.75 150.125 -53.24487305 26.37207031 C-51.09526366 25.13189239 -48.94568642 23.89165873 -46.79614258 22.65136719 C-41.72690788 19.7264977 -36.65735064 16.80219167 -31.5866394 13.87988281 C-29.19573403 12.50193062 -26.80501328 11.12365828 -24.41430664 9.74536133 C-22.73016037 8.77459018 -21.04574769 7.80428126 -19.36132812 6.83398438 C-18.33845703 6.24423828 -17.31558594 5.65449219 -16.26171875 5.046875 C-15.36412842 4.52963867 -14.46653809 4.01240234 -13.54174805 3.47949219 C-10.96446862 2.03207785 -10.96446862 2.03207785 -8.54614258 0.24707031 C-5.17835234 -1.40243324 -3.57128535 -1.03084823 0 0 Z " fill="#EC8E24" transform="translate(687,1)"/>
<path d="M0 0 C2.87060547 1.36010742 2.87060547 1.36010742 5.8671875 3.10546875 C6.98738281 3.75193359 8.10757813 4.39839844 9.26171875 5.06445312 C10.46624802 5.77196148 11.67067243 6.47964836 12.875 7.1875 C14.1336436 7.91812966 15.39276536 8.64793618 16.65234375 9.37695312 C19.84234464 11.22622679 23.02601371 13.08608275 26.20739746 14.95013428 C28.86784844 16.50826901 31.53168463 18.06058534 34.1953125 19.61328125 C37.10381971 21.30954598 40.01169254 23.00684429 42.91748047 24.70776367 C50.58221669 29.19056507 58.28529845 33.60405339 66 38 C75.72124506 43.53985933 85.40894868 49.13374932 95.06689453 54.78344727 C105.59084625 60.93766742 116.15380137 67.02369996 126.71777344 73.10888672 C132.14659942 76.23680148 137.57319281 79.36858448 143 82.5 C145.16665583 83.75001879 147.3333225 85.00001878 149.5 86.25 C249.16666667 143.75 348.83333333 201.25 448.5 258.75 C449.57338623 259.3692334 450.64677246 259.9884668 451.75268555 260.62646484 C453.91049803 261.87141282 456.06821353 263.1165289 458.22583008 264.36181641 C463.77716592 267.56552651 469.33036541 270.7659363 474.88671875 273.9609375 C486.32032959 280.53921282 497.73299389 287.13939727 509 294 C504.34559302 298.09587814 499.08218402 300.89029366 493.6875 303.875 C485.51545121 308.44339103 477.38795577 313.07542157 469.3125 317.8125 C460.57407708 322.93267528 451.79993156 327.98661179 443 333 C434.3058984 337.95363499 425.63497112 342.94369338 417 348 C407.77666734 353.40082848 398.50950056 358.72123809 389.2230835 364.01245117 C380.83010862 368.79587106 372.46526985 373.62509542 364.125 378.5 C363.13846436 379.07435791 362.15192871 379.64871582 361.13549805 380.24047852 C356.92911158 382.69106861 352.73271306 385.15246135 348.57421875 387.68359375 C347.92630371 388.07160156 347.27838867 388.45960938 346.61083984 388.859375 C344.97024141 389.84293225 343.33815493 390.84065226 341.70703125 391.83984375 C338.42640884 393.24582478 337.32962205 393.22220266 334 392 C331.53897275 390.68628439 329.18528912 389.33238679 326.8125 387.875 C325.28725898 386.95830195 323.76116051 386.0430296 322.234375 385.12890625 C321.39970703 384.62762207 320.56503906 384.12633789 319.70507812 383.60986328 C314.68838974 380.62429981 309.62285554 377.72321379 304.5625 374.8125 C302.31377241 373.51697859 300.06507489 372.22140498 297.81640625 370.92578125 C296.68734863 370.27561035 295.55829102 369.62543945 294.39501953 368.95556641 C288.9283002 365.80667946 283.46425113 362.65316736 278 359.5 C275.83334689 358.2499765 273.66668021 356.99997653 271.5 355.75 C241.16666667 338.25 210.83333333 320.75 180.5 303.25 C179.42733887 302.63116943 178.35467773 302.01233887 177.24951172 301.37475586 C175.08442929 300.12564482 172.91939018 298.87645871 170.75439453 297.62719727 C165.31384294 294.48797691 159.87252784 291.35009437 154.4296875 288.21484375 C143.97793801 282.19252671 133.53700452 276.15330663 123.125 270.0625 C113.85436069 264.64041301 104.54063301 259.29675988 95.20953369 253.97976685 C86.13221364 248.80621213 77.09428467 243.56857846 68.078125 238.2890625 C59.82677247 233.46485904 51.53121606 228.72027739 43.22610474 223.98956299 C33.80458655 218.62178575 24.42187626 213.19038044 15.07617188 207.69140625 C13.27919199 206.63707544 11.47366457 205.59715369 9.65917969 204.57324219 C7 203 7 203 4.30175781 201.05957031 C1.5035514 199.17907141 -0.73615296 197.86195631 -4 197 C-8.62296825 198.07296243 -12.1875957 200.41420991 -16.125 203 C-17.22465088 203.66974854 -18.32430176 204.33949707 -19.45727539 205.02954102 C-21.66056871 206.37493194 -23.8527585 207.7386979 -26.03271484 209.12158203 C-29.14634912 211.09264523 -32.30233987 212.96621776 -35.49145508 214.8112793 C-37.49257197 215.96937141 -39.48118783 217.14693844 -41.46875 218.328125 C-47.09867855 221.66001908 -52.7691917 224.92147673 -58.4375 228.1875 C-59.54472412 228.82550537 -60.65194824 229.46351074 -61.79272461 230.12084961 C-64.06337068 231.42889477 -66.33412358 232.73675448 -68.60498047 234.04443359 C-74.0716998 237.19332054 -79.53574887 240.34683264 -85 243.5 C-87.16665311 244.7500235 -89.33331979 246.00002347 -91.5 247.25 C-92.5725 247.86875 -93.645 248.4875 -94.75 249.125 C-364.5 404.75 -364.5 404.75 -367.75048828 406.62524414 C-369.91557071 407.87435518 -372.08060982 409.12354129 -374.24560547 410.37280273 C-379.68615706 413.51202309 -385.12747216 416.64990563 -390.5703125 419.78515625 C-401.06232094 425.83055159 -411.54481676 431.89110219 -422 438 C-433.54729516 444.74701194 -445.12902027 451.43339318 -456.71777344 458.10888672 C-461.06606958 460.61423497 -465.41292341 463.12207822 -469.75952148 465.63037109 C-471.90717831 466.86948478 -474.05512418 468.10809764 -476.20336914 469.34619141 C-481.27803957 472.27144002 -486.3500591 475.20102587 -491.4133606 478.14590454 C-493.80315668 479.5354863 -496.19436836 480.92262172 -498.58569336 482.30957031 C-500.27140589 483.28863253 -501.95506587 484.27122606 -503.63867188 485.25390625 C-505.17297852 486.14335938 -505.17297852 486.14335938 -506.73828125 487.05078125 C-507.63587158 487.57325439 -508.53346191 488.09572754 -509.45825195 488.6340332 C-510.29702881 489.08480225 -511.13580566 489.53557129 -512 490 C-512.825 490.44359863 -513.65 490.88719727 -514.5 491.34423828 C-517 492 -517 492 -519.54174805 491.08813477 C-520.43933838 490.54471436 -521.33692871 490.00129395 -522.26171875 489.44140625 C-523.28458984 488.83554687 -524.30746094 488.2296875 -525.36132812 487.60546875 C-526.45896484 486.93128906 -527.55660156 486.25710938 -528.6875 485.5625 C-529.84845726 484.86786249 -531.01058896 484.17518444 -532.17382812 483.484375 C-534.59105776 482.04679147 -537.00299922 480.6008816 -539.41162109 479.14892578 C-544.89488284 475.85298921 -550.45067699 472.68294249 -556 469.5 C-558.16701131 468.25059757 -560.33367695 467.00059541 -562.5 465.75 C-563.5725 465.13125 -564.645 464.5125 -565.75 463.875 C-627.5 428.25 -627.5 428.25 -630.75292969 426.37329102 C-632.90980903 425.12895002 -635.06670992 423.88464636 -637.22363281 422.64038086 C-642.21034826 419.76363263 -647.19687102 416.88655262 -652.18258667 414.0080719 C-669.57060073 403.96798192 -669.57060073 403.96798192 -687 394 C-687 393.34 -687 392.68 -687 392 C-685.9162207 391.38294189 -685.9162207 391.38294189 -684.81054688 390.75341797 C-672.17548317 383.55590142 -659.54821437 376.34826509 -647 369 C-637.77201265 363.5964046 -628.50005309 358.27347627 -619.20898438 352.97949219 C-611.11255867 348.36497196 -603.04193491 343.70904745 -595 339 C-586.36502443 333.94369077 -577.69393681 328.95392878 -569 324 C-559.27875494 318.46014067 -549.59105132 312.86625068 -539.93310547 307.21655273 C-529.40915375 301.06233258 -518.84619863 294.97630004 -508.28222656 288.89111328 C-502.85340058 285.76319852 -497.42680719 282.63141552 -492 279.5 C-489.83334417 278.24998121 -487.6666775 276.99998122 -485.5 275.75 C-484.4275 275.13125 -483.355 274.5125 -482.25 273.875 C-375 212 -267.75 150.125 -53.24487305 26.37207031 C-51.09526366 25.13189239 -48.94568642 23.89165873 -46.79614258 22.65136719 C-41.72690788 19.7264977 -36.65735064 16.80219167 -31.5866394 13.87988281 C-29.19573403 12.50193062 -26.80501328 11.12365828 -24.41430664 9.74536133 C-22.73016037 8.77459018 -21.04574769 7.80428126 -19.36132812 6.83398438 C-18.33845703 6.24423828 -17.31558594 5.65449219 -16.26171875 5.046875 C-15.36412842 4.52963867 -14.46653809 4.01240234 -13.54174805 3.47949219 C-10.96446862 2.03207785 -10.96446862 2.03207785 -8.54614258 0.24707031 C-5.17835234 -1.40243324 -3.57128535 -1.03084823 0 0 Z " fill="#F7BE3B" transform="translate(687,1)"/>
<path d="M0 0 C0.33 65.01 0.66 130.02 1 197 C8.59 201.29 16.18 205.58 24 210 C27.90356765 212.25971373 31.80144805 214.52361837 35.6875 216.8125 C44.42506951 221.93412258 53.20016333 226.98647712 62 232 C71.72134099 237.53968899 81.40895092 243.13375063 91.06689453 248.78344727 C101.5806503 254.931705 112.13329606 261.01197929 122.68701172 267.09130859 C128.2717109 270.30878672 133.85459417 273.52941143 139.4375 276.75 C140.4176709 277.31517334 141.3978418 277.88034668 142.40771484 278.46264648 C144.36874842 279.5937386 146.31967843 280.74254855 148.2595396 281.90957928 C151.01052833 283.51217808 153.81245431 284.82328611 156.72777271 286.10042286 C169.34305236 291.95011585 169.34305236 291.95011585 172.08732581 297.00140166 C173.77574591 302.66735463 173.38392451 308.48991729 173.15698242 314.33276367 C173.15161552 316.27524282 173.15464612 318.21776044 173.16539001 320.16021729 C173.17082074 325.40868547 173.05953427 330.64882589 172.92648482 335.89536452 C172.80731834 341.3868641 172.79651979 346.87857706 172.77400208 352.37117004 C172.715056 362.76014007 172.55930852 373.14528968 172.36836177 383.53258067 C172.15563414 395.36278245 172.05143871 407.19317148 171.95614851 419.02481115 C171.75779998 443.35198848 171.42383515 467.6757798 171 492 C168.78453726 490.90226139 166.57020354 489.80233853 164.35644531 488.70117188 C163.73649689 488.39427429 163.11654846 488.08737671 162.47781372 487.7711792 C156.7562143 484.92141961 151.24372807 481.76634745 145.75 478.5 C143.65921977 477.26891013 141.56806058 476.03846367 139.4765625 474.80859375 C137.87796387 473.86669189 137.87796387 473.86669189 136.24707031 472.90576172 C130.89014474 469.76168946 125.50778564 466.66202384 120.125 463.5625 C119.04573242 462.94052734 117.96646484 462.31855469 116.85449219 461.67773438 C114.66385034 460.4153306 112.473095 459.15312377 110.28222656 457.89111328 C104.85340058 454.76319852 99.42680719 451.63141552 94 448.5 C91.83334417 447.24998121 89.6666775 445.99998122 87.5 444.75 C48.5 422.25 48.5 422.25 45.24414062 420.37158203 C43.09704864 419.13289998 40.94991386 417.8942921 38.80273438 416.65576172 C33.70411191 413.7146665 28.60594704 410.77278587 23.50927734 407.82830811 C21.08952335 406.43041399 18.66952737 405.03293911 16.24951172 403.63549805 C14.53198948 402.64347676 12.81481948 401.65084571 11.09765625 400.65820312 C10.06511719 400.06201172 9.03257812 399.46582031 7.96875 398.8515625 C7.05544922 398.32385254 6.14214844 397.79614258 5.20117188 397.25244141 C3.82011309 396.46663489 2.42121505 395.71060752 1 395 C0.67 524.69 0.34 654.38 0 788 C-4.26634366 786.57788545 -7.14454638 785.51358575 -10.8515625 783.3046875 C-11.77066406 782.76199219 -12.68976563 782.21929688 -13.63671875 781.66015625 C-15.11591797 780.77650391 -15.11591797 780.77650391 -16.625 779.875 C-18.78313461 778.60034343 -20.94201956 777.3269566 -23.1015625 776.0546875 C-24.22981445 775.38920898 -25.35806641 774.72373047 -26.52050781 774.03808594 C-31.72922437 770.97803362 -36.98107186 767.99350105 -42.23168945 765.00613403 C-52.5461387 759.13741463 -62.82353475 753.20870569 -73.06689453 747.21655273 C-83.59084625 741.06233258 -94.15380137 734.97630004 -104.71777344 728.89111328 C-111.21847963 725.14561565 -117.71625032 721.39502735 -124.21435547 717.64501953 C-129.23653702 714.74705111 -134.25927066 711.85005713 -139.28442383 708.95724487 C-141.05045522 707.94052802 -142.81627431 706.92344342 -144.58203125 705.90625 C-146.78734155 704.63599127 -148.99304216 703.36640982 -151.19921875 702.09765625 C-169.37487019 691.62512981 -169.37487019 691.62512981 -171 690 C-171.10742443 686.88092086 -171.14836741 683.78366682 -171.14818764 680.66384602 C-171.15203785 679.6666609 -171.15588806 678.66947579 -171.15985495 677.64207295 C-171.17164867 674.25586994 -171.17620232 670.86969462 -171.18081665 667.48347473 C-171.18768888 665.04912964 -171.19497707 662.61478569 -171.20264852 660.18044299 C-171.22037844 654.16290453 -171.23328958 648.14537211 -171.24411704 642.12781863 C-171.25327319 637.12300614 -171.26475819 632.11820347 -171.27774811 627.11339951 C-171.28055184 626.03192449 -171.28055184 626.03192449 -171.28341221 624.9286015 C-171.28722922 623.45830311 -171.29104803 621.98800472 -171.2948686 620.51770634 C-171.34605507 600.62250211 -171.38175705 580.72727393 -171.4140625 560.83203125 C-171.41538651 560.01772964 -171.41671053 559.20342802 -171.41807466 558.3644506 C-171.47024971 526.14549312 -171.51465033 493.92652311 -171.54586862 461.70753829 C-171.55362187 453.72226162 -171.5616691 445.73698525 -171.56982422 437.75170898 C-171.57071816 436.86932439 -171.57161211 435.9869398 -171.57253314 435.07781628 C-171.60174611 406.46177632 -171.66274604 377.84591741 -171.74120806 349.22997334 C-171.82168127 319.82710754 -171.87296741 290.42433947 -171.88632692 261.0213626 C-171.88822006 256.8708719 -171.8904333 252.72038142 -171.89283371 248.56989098 C-171.89329402 247.75300008 -171.89375432 246.93610918 -171.89422858 246.09446402 C-171.9024776 232.93193643 -171.94135832 219.76966827 -171.99144951 206.60724087 C-172.04108219 193.38314493 -172.05788705 180.15932969 -172.04102559 166.93514846 C-172.03198829 159.0731267 -172.04814215 151.2120876 -172.10004109 143.35022695 C-172.13599137 137.48716153 -172.12519427 131.62479969 -172.09587733 125.76167592 C-172.09136112 123.3840689 -172.10222013 121.00637518 -172.12962742 118.62892184 C-172.16457311 115.40605627 -172.14450377 112.18812238 -172.11022377 108.96535969 C-172.13358105 108.03323946 -172.15693832 107.10111924 -172.18100339 106.14075294 C-172.08691627 102.18845628 -171.96751568 99.92433158 -169.02940182 97.11735751 C-166.74308367 95.57259979 -164.45511538 94.255168 -162 93 C-160.99453125 92.40348633 -159.9890625 91.80697266 -158.953125 91.19238281 C-158.06109375 90.70092773 -157.1690625 90.20947266 -156.25 89.703125 C-155.23881104 89.14246338 -154.22762207 88.58180176 -153.18579102 88.00415039 C-151.60882446 87.13584595 -151.60882446 87.13584595 -150 86.25 C-142.81107379 82.25824176 -135.63363437 78.26001356 -128.5625 74.0625 C-121.59230165 69.92682031 -114.58498988 65.85878933 -107.5625 61.8125 C-106.45527588 61.17449463 -105.34805176 60.53648926 -104.20727539 59.87915039 C-101.93662932 58.57110523 -99.66587642 57.26324552 -97.39501953 55.95556641 C-91.9283002 52.80667946 -86.46425113 49.65316736 -81 46.5 C-78.83334689 45.2499765 -76.66668021 43.99997653 -74.5 42.75 C-73.4275 42.13125 -72.355 41.5125 -71.25 40.875 C-61.5 35.25 -61.5 35.25 -58.24731445 33.37353516 C-56.08950197 32.12858718 -53.93178647 30.8834711 -51.77416992 29.63818359 C-46.22283408 26.43447349 -40.66963459 23.2340637 -35.11328125 20.0390625 C-20.02531159 11.37288206 -20.02531159 11.37288206 -5.09692383 2.43603516 C-1.09964965 0 -1.09964965 0 0 0 Z " fill="#E55B2C" transform="translate(512,493)"/>
<path d="M0 0 C2.88508983 1.35304013 5.62796283 2.84143524 8.390625 4.43017578 C9.5038916 5.06834229 10.6171582 5.70650879 11.76416016 6.36401367 C12.96912307 7.05916237 14.17403715 7.75439573 15.37890625 8.44970703 C16.63575424 9.17189321 17.89275537 9.89381293 19.14990234 10.61547852 C22.37777773 12.4696377 25.60329974 14.32784656 28.82794189 16.18762207 C31.68665829 17.83612886 34.54659079 19.48252391 37.40625 21.12939453 C42.76418734 24.21699879 48.11933126 27.30941636 53.47363281 30.40332031 C58.8781127 33.52545308 64.28488037 36.64361907 69.69140625 39.76220703 C71.85808375 41.01218825 74.02475042 42.26218824 76.19140625 43.51220703 C77.26390625 44.13095703 78.33640625 44.74970703 79.44140625 45.38720703 C97.31640625 55.69970703 97.31640625 55.69970703 115.19140625 66.01220703 C116.26535645 66.6317627 117.33930664 67.25131836 118.44580078 67.88964844 C120.59792755 69.1313223 122.74994698 70.37318225 124.90185547 71.61523438 C129.94171602 74.52387526 134.98258117 77.43072601 140.02740479 80.33074951 C141.80890203 81.35496368 143.59004947 82.37978354 145.37109375 83.40478516 C147.6021725 84.68854079 149.83390198 85.97116642 152.06640625 87.25244141 C153.07960938 87.83574219 154.0928125 88.41904297 155.13671875 89.02001953 C156.01859863 89.52678223 156.90047852 90.03354492 157.80908203 90.55566406 C159.23583252 91.40040283 159.23583252 91.40040283 160.69140625 92.26220703 C161.34683851 92.46220023 162.00227077 92.66219343 162.67756462 92.86824703 C165.45087904 93.96699079 166.80571203 94.91927702 168.69140625 97.26220703 C170.05426069 103.42142403 169.95266119 109.58928042 169.98046875 115.87524414 C170.01750893 117.8138939 170.05770831 119.7524855 170.10083008 121.69100952 C170.20573967 126.95799231 170.25736452 132.22415999 170.29291534 137.49202418 C170.31638583 140.78668484 170.3492289 144.08112423 170.38494873 147.37567329 C170.49435005 157.69452102 170.57167109 168.01286119 170.60256386 178.33224863 C170.63836768 190.22550171 170.77848844 202.11137809 171.01056862 214.00238794 C171.1839125 223.20533001 171.26421838 232.40620564 171.27489281 241.6107617 C171.28325574 247.10366822 171.32992893 252.58964433 171.47344971 258.0808239 C172.29639355 291.41675287 172.29639355 291.41675287 166.32354355 299.4448452 C160.70285338 304.37017668 154.55015833 307.10697633 147.47503281 309.33682632 C143.7876867 310.56263693 140.84713956 312.30647001 137.57421875 314.38330078 C135.65529973 315.48938011 133.73603753 316.5948643 131.81640625 317.69970703 C129.63150087 318.95880505 127.44660533 320.21792014 125.26171875 321.47705078 C124.17665039 322.10208496 123.09158203 322.72711914 121.97363281 323.37109375 C116.54480683 326.49900851 111.11821344 329.63079151 105.69140625 332.76220703 C103.52475042 334.01222582 101.35808375 335.26222582 99.19140625 336.51220703 C98.11890625 337.13095703 97.04640625 337.74970703 95.94140625 338.38720703 C60.19140625 359.01220703 60.19140625 359.01220703 56.9387207 360.88867188 C54.78090822 362.13361985 52.62319272 363.37873593 50.46557617 364.62402344 C44.91424033 367.82773354 39.36104084 371.02814333 33.8046875 374.22314453 C32.66580078 374.87863281 31.52691406 375.53412109 30.35351562 376.20947266 C28.21353137 377.44105543 26.07296399 378.67162589 23.93164062 379.90087891 C21.97948307 381.02492538 20.03806941 382.1679144 18.10983849 383.33252811 C15.66680868 384.7115998 13.41543938 385.8360679 10.85679054 386.91850185 C3.62774463 390.14250803 3.62774463 390.14250803 -1.1533494 396.13697171 C-2.49586675 401.75800979 -2.10817947 407.5107851 -1.89697266 413.2409668 C-1.88130637 415.1701337 -1.87245836 417.09936617 -1.86988831 419.02859497 C-1.85050826 423.17186238 -1.78458396 427.31080819 -1.68239212 431.45285225 C-1.52242318 438.00467104 -1.47535838 444.55437267 -1.44467163 451.1078949 C-1.37021295 463.83285402 -1.18823138 476.55508222 -0.98885345 489.27861023 C-0.73642324 505.47742958 -0.511635 521.6753712 -0.42646539 537.87603992 C-0.38819442 544.38831604 -0.28531841 550.89538386 -0.13214517 557.40592778 C-0.04953728 561.4576279 -0.0207348 565.50844067 -0.00619316 569.56090164 C0.01168842 571.43653946 0.05198354 573.31212087 0.11657906 575.18673134 C0.50060014 586.72663615 0.50060014 586.72663615 -1.30859375 591.26220703 C-5.22684916 595.24874613 -9.15588084 597.0779725 -14.30859375 599.26220703 C-16.48327688 600.48808843 -18.64567147 601.73630594 -20.7890625 603.01611328 C-23.02359077 604.28766549 -25.25930761 605.55713086 -27.49609375 606.82470703 C-29.96676972 608.22986181 -32.43647481 609.63671976 -34.90625 611.04345703 C-35.52634949 611.39638321 -36.14644897 611.74930939 -36.78533936 612.1129303 C-43.0149746 615.66004759 -49.22609595 619.23900367 -55.43359375 622.82470703 C-56.49731201 623.43902588 -57.56103027 624.05334473 -58.65698242 624.6862793 C-60.80168962 625.92512926 -62.94630255 627.16414245 -65.09082031 628.40332031 C-70.4953002 631.52545308 -75.90206787 634.64361907 -81.30859375 637.76220703 C-83.47527125 639.01218825 -85.64193792 640.26218824 -87.80859375 641.51220703 C-107.30859375 652.76220703 -107.30859375 652.76220703 -126.80859375 664.01220703 C-127.88302734 664.63224609 -128.95746094 665.25228516 -130.06445312 665.89111328 C-132.21098083 667.12914672 -134.35810751 668.36614226 -136.50585938 669.60205078 C-141.61519412 672.5438832 -146.71743053 675.49650296 -151.79931641 678.48547363 C-154.21687955 679.90654846 -156.63783076 681.32179279 -159.05908203 682.73657227 C-160.77971955 683.74527981 -162.49537838 684.76246451 -164.2109375 685.77978516 C-165.75974609 686.68374023 -165.75974609 686.68374023 -167.33984375 687.60595703 C-168.70979492 688.41323242 -168.70979492 688.41323242 -170.10742188 689.23681641 C-171.19700195 689.74438477 -171.19700195 689.74438477 -172.30859375 690.26220703 C-172.96859375 689.93220703 -173.62859375 689.60220703 -174.30859375 689.26220703 C-173.97859375 559.24220703 -173.64859375 429.22220703 -173.30859375 295.26220703 C-157.37010795 303.23144993 -157.37010795 303.23144993 -151.55859375 306.76220703 C-150.11528631 307.62406244 -148.67122331 308.48465334 -147.2265625 309.34423828 C-146.44845215 309.80781738 -145.6703418 310.27139648 -144.86865234 310.74902344 C-139.89310306 313.68994032 -134.87988479 316.56590265 -129.87109375 319.44970703 C-128.76475586 320.08714844 -127.65841797 320.72458984 -126.51855469 321.38134766 C-124.24703698 322.69000333 -121.97538878 323.99843253 -119.70361328 325.30664062 C-114.23689395 328.45552757 -108.77284488 331.60903967 -103.30859375 334.76220703 C-101.14194064 336.01223053 -98.97527396 337.2622305 -96.80859375 338.51220703 C-57.80859375 361.01220703 -57.80859375 361.01220703 -54.55444336 362.88964844 C-52.40166559 364.13160447 -50.24883412 365.37346743 -48.09594727 366.61523438 C-43.0624246 369.51867616 -38.02941327 372.42299203 -32.99838257 375.33074951 C-31.22496767 376.35566106 -29.45137729 377.38026826 -27.67773438 378.40478516 C-25.45863602 379.68673441 -23.23986359 380.9692481 -21.02148438 382.25244141 C-20.01150391 382.83574219 -19.00152344 383.41904297 -17.9609375 384.02001953 C-17.08429443 384.52678223 -16.20765137 385.03354492 -15.30444336 385.55566406 C-11.3238659 387.82314319 -7.31319386 390.03742919 -3.30859375 392.26220703 C-2.97859375 327.58220703 -2.64859375 262.90220703 -2.30859375 196.26220703 C-3.95859375 195.60220703 -5.60859375 194.94220703 -7.30859375 194.26220703 C-8.88232653 193.44165243 -10.4406083 192.59096272 -11.984375 191.71533203 C-12.88196533 191.20760254 -13.77955566 190.69987305 -14.7043457 190.17675781 C-15.66687256 189.62745605 -16.62939941 189.0781543 -17.62109375 188.51220703 C-18.63582764 187.93583496 -19.65056152 187.35946289 -20.69604492 186.765625 C-29.88668155 181.53180302 -39.02047589 176.20196661 -48.1484375 170.85986328 C-57.74801613 165.24542028 -67.38995326 159.70420383 -77.02636719 154.15332031 C-82.45519317 151.02540555 -87.88178656 147.89362255 -93.30859375 144.76220703 C-95.47524958 143.51218824 -97.64191625 142.26218825 -99.80859375 141.01220703 C-112.80859376 133.51220703 -112.80859376 133.51220703 -116.06152344 131.63549805 C-118.21840278 130.39115705 -120.37530367 129.14685339 -122.53222656 127.90258789 C-127.51894201 125.02583966 -132.50546477 122.14875965 -137.49118042 119.27027893 C-154.87919448 109.23018895 -154.87919448 109.23018895 -172.30859375 99.26220703 C-172.30859375 98.60220703 -172.30859375 97.94220703 -172.30859375 97.26220703 C-135.47526042 76.01220703 -98.64192708 54.76220703 -61.80859375 33.51220703 C-60.73512695 32.89289307 -59.66166016 32.2735791 -58.55566406 31.63549805 C-56.39878472 30.39115705 -54.24188383 29.14685339 -52.08496094 27.90258789 C-45.37045863 24.02910988 -38.65645408 20.15477325 -31.9440918 16.27758789 C-29.71780946 14.99338565 -27.49014451 13.7115768 -25.26098633 12.43237305 C-20.72369244 9.82709268 -16.1978502 7.21617765 -11.7421875 4.47314453 C-11.09282227 4.0798999 -10.44345703 3.68665527 -9.77441406 3.28149414 C-8.15662205 2.29735955 -6.55028482 1.29445662 -4.9453125 0.28955078 C-2.30859375 -0.73779297 -2.30859375 -0.73779297 0 0 Z " fill="#ED8D23" transform="translate(685.30859375,591.73779296875)"/>
<path d="M0 0 C2.41147861 1.28167274 4.82245582 2.56427351 7.2331543 3.84741211 C8.25263783 4.38907139 8.25263783 4.38907139 9.29271698 4.94167328 C13.8656959 7.3769428 18.37321668 9.8903753 22.8125 12.5625 C29.98814308 16.8282517 37.20393812 21.02074119 44.4375 25.1875 C45.54391846 25.82502197 46.65033691 26.46254395 47.7902832 27.11938477 C50.06173458 28.42793295 52.33330128 29.73628095 54.60498047 31.04443359 C60.0716998 34.19332054 65.53574887 37.34683264 71 40.5 C73.16665311 41.7500235 75.33331979 43.00002347 77.5 44.25 C97 55.5 97 55.5 116.5 66.75 C117.57266113 67.36883057 118.64532227 67.98766113 119.75048828 68.62524414 C121.91557071 69.87435518 124.08060982 71.12354129 126.24560547 72.37280273 C131.68615706 75.51202309 137.12747216 78.64990563 142.5703125 81.78515625 C153.02206199 87.80747329 163.46299548 93.84669337 173.875 99.9375 C183.14563931 105.35958699 192.45936699 110.70324012 201.79046631 116.02023315 C210.86778636 121.19378787 219.90571533 126.43142154 228.921875 131.7109375 C236.58573974 136.19166265 244.28685835 140.60494224 252 145 C261.71982185 150.53904829 271.406499 156.13146218 281.0625 161.78125 C289.43471111 166.67799417 297.82922781 171.53532015 306.2434082 176.35961914 C311.79728336 179.54935889 317.31922308 182.78104042 322.80078125 186.09375 C323.89455078 186.74923828 324.98832031 187.40472656 326.11523438 188.08007812 C328.20064669 189.33234465 330.27917536 190.59616828 332.34960938 191.87304688 C333.28224609 192.43056641 334.21488281 192.98808594 335.17578125 193.5625 C336.39648315 194.30693359 336.39648315 194.30693359 337.6418457 195.06640625 C340.6261234 196.24788238 341.96999636 195.99575661 345 195 C347.60634704 193.7544728 347.60634704 193.7544728 350.26171875 192.1484375 C351.28458984 191.55224609 352.30746094 190.95605469 353.36132812 190.34179688 C354.45896484 189.69275391 355.55660156 189.04371094 356.6875 188.375 C357.84916922 187.69521082 359.01128693 187.01618752 360.17382812 186.33789062 C362.58817446 184.92841697 365.00055922 183.51567013 367.41162109 182.10058594 C372.92318583 178.86944479 378.4629938 175.68727005 384 172.5 C386.16679965 171.25023053 388.3334659 170.00022976 390.5 168.75 C455.5 131.25 455.5 131.25 458.75390625 129.37280273 C460.9076172 128.13023981 463.06126367 126.88756511 465.21484375 125.64477539 C470.23684262 122.74685377 475.25942807 119.84996651 480.28442383 116.95724487 C482.05045522 115.94052802 483.81627431 114.92344342 485.58203125 113.90625 C487.78734155 112.63599127 489.99304216 111.36640982 492.19921875 110.09765625 C497.86414009 106.83361706 503.48323534 103.51571108 509.0390625 100.06860352 C511 99 511 99 513 99 C513.21017991 124.58179943 513.36891928 150.1634696 513.46630955 175.74595833 C513.51273032 187.62422664 513.5760247 199.50195869 513.67895508 211.37988281 C513.76861987 221.73191776 513.82671435 232.08356439 513.84679645 242.43597686 C513.85853702 247.91848113 513.88615342 253.39987446 513.95157051 258.88202286 C514.01264285 264.0418523 514.03150838 269.200113 514.01796913 274.36026955 C514.02044601 276.25420342 514.03836222 278.14818951 514.07284927 280.04181099 C514.32102455 294.37105376 514.32102455 294.37105376 511.039464 298.41752338 C508.7267622 299.99080831 506.61112894 301.02286606 504 302 C502.95078369 302.63091553 501.90156738 303.26183105 500.82055664 303.91186523 C499.86012451 304.45528564 498.89969238 304.99870605 497.91015625 305.55859375 C496.80978027 306.18386963 495.7094043 306.80914551 494.57568359 307.45336914 C494.00388367 307.77628937 493.43208374 308.09920959 492.84295654 308.43191528 C490.37627275 309.82507455 487.91390715 311.22579131 485.45123291 312.62602234 C484.17649368 313.35075634 482.90154973 314.07513036 481.62640381 314.79914856 C475.35957661 318.35861451 469.11519933 321.95657496 462.875 325.5625 C461.811604 326.17665771 460.74820801 326.79081543 459.65258789 327.42358398 C457.50754426 328.66257782 455.36260574 329.90175366 453.21777344 331.14111328 C447.81329355 334.26324605 442.40652588 337.38141204 437 340.5 C434.8333225 341.74998122 432.66665583 342.99998121 430.5 344.25 C417.5 351.75 404.5 359.25 391.5 366.75 C390.42580811 367.36979736 389.35161621 367.98959473 388.24487305 368.62817383 C386.09554585 369.86802723 383.94597219 371.1074535 381.79614258 372.34643555 C376.72165511 375.27163763 371.64978383 378.20111723 366.5866394 381.14590454 C364.19684332 382.5354863 361.80563164 383.92262172 359.41430664 385.30957031 C357.72859411 386.28863253 356.04493413 387.27122606 354.36132812 388.25390625 C353.33845703 388.846875 352.31558594 389.43984375 351.26171875 390.05078125 C350.36412842 390.57325439 349.46653809 391.09572754 348.54174805 391.6340332 C346.03577675 392.98077313 343.72675409 394.17808238 341 395 C338.15616514 393.80912477 335.79987881 392.58654367 333.1875 391 C332.40761719 390.5464917 331.62773438 390.0929834 330.82421875 389.62573242 C329.1143343 388.62868945 327.40928843 387.6233145 325.70849609 386.61083984 C322.94731386 384.96866566 320.17322779 383.35062314 317.39453125 381.73828125 C313.37016996 379.4013921 309.35112249 377.05574536 305.3359375 374.703125 C298.94718008 370.96365411 292.53883924 367.25874966 286.125 363.5625 C285.04541016 362.94028564 283.96582031 362.31807129 282.85351562 361.67700195 C280.6631748 360.41488483 278.47274498 359.15292215 276.28222656 357.89111328 C270.85340058 354.76319852 265.42680719 351.63141552 260 348.5 C257.83334417 347.24998121 255.6666775 345.99998122 253.5 344.75 C188.5 307.25 123.5 269.75 58.5 232.25 C57.42645264 231.63068604 56.35290527 231.01137207 55.24682617 230.37329102 C53.09059787 229.12923208 50.93450951 227.88493058 48.77856445 226.64038086 C43.78593048 223.75869341 38.79212484 220.87912878 33.79293823 218.00881958 C32.04975268 217.0078019 30.30703628 216.00597217 28.56445312 215.00390625 C26.39870382 213.75881961 24.23211129 212.5151979 22.06445312 211.2734375 C20.11632722 210.15266694 18.17931207 209.01224562 16.25673199 207.84819794 C13.0432489 205.9403629 13.0432489 205.9403629 9.61800098 204.57569122 C1.01386434 200.52095392 1.01386434 200.52095392 -0.73733544 196.16662979 C-1.94890412 190.48755112 -1.62745134 184.68593423 -1.47583008 178.91601562 C-1.47216045 176.96412401 -1.47422669 175.01221446 -1.48158264 173.06033325 C-1.48530674 167.77427052 -1.4089934 162.4920574 -1.31812119 157.2068882 C-1.23674453 151.67910009 -1.22920946 146.15121947 -1.21379089 140.6229248 C-1.17341586 130.16046488 -1.06678241 119.69977498 -0.93624753 109.23809385 C-0.79084133 97.32544732 -0.71943987 85.41271535 -0.65420687 73.49940205 C-0.51839375 48.99862076 -0.28979788 24.49940963 0 0 Z " fill="#E55B2C" transform="translate(683,197)"/>
<path d="M0 0 C2.88508983 1.35304013 5.62796283 2.84143524 8.390625 4.43017578 C9.5038916 5.06834229 10.6171582 5.70650879 11.76416016 6.36401367 C12.96912307 7.05916237 14.17403715 7.75439573 15.37890625 8.44970703 C16.63575424 9.17189321 17.89275537 9.89381293 19.14990234 10.61547852 C22.37777773 12.4696377 25.60329974 14.32784656 28.82794189 16.18762207 C31.68665829 17.83612886 34.54659079 19.48252391 37.40625 21.12939453 C42.76418734 24.21699879 48.11933126 27.30941636 53.47363281 30.40332031 C58.8781127 33.52545308 64.28488037 36.64361907 69.69140625 39.76220703 C71.85808375 41.01218825 74.02475042 42.26218824 76.19140625 43.51220703 C77.26390625 44.13095703 78.33640625 44.74970703 79.44140625 45.38720703 C91.35807292 52.26220703 103.27473958 59.13720703 115.19140625 66.01220703 C116.26535645 66.6317627 117.33930664 67.25131836 118.44580078 67.88964844 C120.59792755 69.1313223 122.74994698 70.37318225 124.90185547 71.61523438 C129.94171602 74.52387526 134.98258117 77.43072601 140.02740479 80.33074951 C141.80890203 81.35496368 143.59004947 82.37978354 145.37109375 83.40478516 C147.6021725 84.68854079 149.83390198 85.97116642 152.06640625 87.25244141 C157.6800599 90.48422038 163.22432063 93.78792001 168.69140625 97.26220703 C165.8514165 100.33163642 163.0927804 102.36139445 159.4296875 104.36376953 C158.40238525 104.93087646 157.37508301 105.4979834 156.31665039 106.08227539 C154.67684204 106.97571655 154.67684204 106.97571655 153.00390625 107.88720703 C150.71668061 109.15014132 148.43022272 110.41446702 146.14453125 111.68017578 C145.03142578 112.29554199 143.91832031 112.9109082 142.77148438 113.54492188 C138.89678419 115.70524536 135.06661892 117.93223262 131.25390625 120.19970703 C124.28407701 124.33599952 117.27638647 128.40342327 110.25390625 132.44970703 C109.14668213 133.0877124 108.03945801 133.72571777 106.89868164 134.38305664 C104.62803557 135.6911018 102.35728267 136.99896151 100.08642578 138.30664062 C94.61970645 141.45552757 89.15565738 144.60903967 83.69140625 147.76220703 C81.52475314 149.01223053 79.35808646 150.2622305 77.19140625 151.51220703 C76.11890625 152.13095703 75.04640625 152.74970703 73.94140625 153.38720703 C64.19140624 159.01220704 64.19140624 159.01220704 60.93969727 160.88818359 C58.77871637 162.13490959 56.61774627 163.3816543 54.45678711 164.62841797 C48.95321774 167.80366586 43.44944593 170.97856198 37.9453125 174.15283203 C36.83502686 174.79349609 35.72474121 175.43416016 34.58081055 176.09423828 C32.38673679 177.35912735 30.19160907 178.62219022 27.99536133 179.88330078 C22.97187206 182.77123945 17.96894804 185.68360792 13.01171875 188.68408203 C11.70352173 189.4676709 11.70352173 189.4676709 10.36889648 190.26708984 C8.75949005 191.23345958 7.15686158 192.21124925 5.56274414 193.20263672 C4.50301392 193.83540527 4.50301392 193.83540527 3.421875 194.48095703 C2.81754639 194.8515625 2.21321777 195.22216797 1.59057617 195.60400391 C-1.88562869 196.80876651 -4.580199 195.60752275 -7.7902832 194.08569336 C-8.6587085 193.59351318 -9.52713379 193.10133301 -10.421875 192.59423828 C-11.40986084 192.03808838 -12.39784668 191.48193848 -13.41577148 190.90893555 C-14.47352783 190.30364014 -15.53128418 189.69834473 -16.62109375 189.07470703 C-17.72976807 188.44685303 -18.83844238 187.81899902 -19.98071289 187.17211914 C-29.43825033 181.80027005 -38.83561026 176.32524724 -48.21875 170.82470703 C-54.52429794 167.13007393 -60.85153811 163.47368022 -67.18359375 159.82470703 C-68.26374756 159.20217041 -69.34390137 158.57963379 -70.45678711 157.93823242 C-72.64655709 156.67643877 -74.8364173 155.41480169 -77.02636719 154.15332031 C-82.45519317 151.02540555 -87.88178656 147.89362255 -93.30859375 144.76220703 C-95.47524958 143.51218824 -97.64191625 142.26218825 -99.80859375 141.01220703 C-112.80859375 133.51220703 -112.80859375 133.51220703 -116.06152344 131.63549805 C-118.21840278 130.39115705 -120.37530367 129.14685339 -122.53222656 127.90258789 C-127.51894201 125.02583966 -132.50546477 122.14875965 -137.49118042 119.27027893 C-154.87919448 109.23018895 -154.87919448 109.23018895 -172.30859375 99.26220703 C-172.30859375 98.60220703 -172.30859375 97.94220703 -172.30859375 97.26220703 C-135.47526042 76.01220703 -98.64192708 54.76220703 -61.80859375 33.51220703 C-60.73512695 32.89289307 -59.66166016 32.2735791 -58.55566406 31.63549805 C-56.39878472 30.39115705 -54.24188383 29.14685339 -52.08496094 27.90258789 C-45.37045863 24.02910988 -38.65645408 20.15477325 -31.9440918 16.27758789 C-29.71780946 14.99338565 -27.49014451 13.7115768 -25.26098633 12.43237305 C-20.72369244 9.82709268 -16.1978502 7.21617765 -11.7421875 4.47314453 C-11.09282227 4.0798999 -10.44345703 3.68665527 -9.77441406 3.28149414 C-8.15662205 2.29735955 -6.55028482 1.29445662 -4.9453125 0.28955078 C-2.30859375 -0.73779297 -2.30859375 -0.73779297 0 0 Z " fill="#F7BE3B" transform="translate(685.30859375,591.73779296875)"/>
<path d="M0 0 C4.82991105 1.53144553 8.93796414 3.56010783 13.25 6.1875 C14.76618915 7.09498405 16.28316888 8.00114806 17.80078125 8.90625 C19.04335693 9.64875 19.04335693 9.64875 20.31103516 10.40625 C25.32667865 13.3790229 30.38418227 16.27939472 35.4375 19.1875 C36.54319336 19.82453857 37.64888672 20.46157715 38.78808594 21.11791992 C41.06024082 22.42700657 43.33254009 23.73584262 45.60498047 25.04443359 C51.0716998 28.19332054 56.53574887 31.34683264 62 34.5 C64.16665311 35.7500235 66.33331979 37.00002347 68.5 38.25 C81.5 45.75 94.5 53.25 107.5 60.75 C108.5732251 61.36915283 109.6464502 61.98830566 110.75219727 62.6262207 C112.91159395 63.8720577 115.07093669 65.11798818 117.23022461 66.36401367 C122.75767597 69.55348953 128.28615121 72.74116885 133.81640625 75.92578125 C143.58011894 81.54975836 153.34303524 87.17477593 163.0625 92.875 C163.76511963 93.28596924 164.46773926 93.69693848 165.19165039 94.12036133 C169.87952283 96.87952283 169.87952283 96.87952283 171 98 C171.09775474 100.54196189 171.12995277 103.05672961 171.12025452 105.59913635 C171.12153615 106.80710771 171.12153615 106.80710771 171.12284368 108.03948253 C171.12450095 110.75884703 171.11897311 113.47815088 171.11352539 116.19750977 C171.11324355 118.13851927 171.1134012 120.07952889 171.1139679 122.02053833 C171.11425598 127.30750984 171.10835756 132.59445888 171.10139394 137.88142514 C171.09516214 143.40011053 171.09455674 148.91879638 171.09336853 154.43748474 C171.0902547 164.89579158 171.08204061 175.35408802 171.07201904 185.81239027 C171.06085951 197.71545041 171.05534786 209.61851103 171.05032361 221.52157509 C171.03985804 246.01438917 171.0222576 270.507194 171 295 C167.06804528 293.7282356 163.63344163 292.38267032 160.078125 290.26953125 C159.14887207 289.72176025 158.21961914 289.17398926 157.26220703 288.60961914 C156.26817871 288.01656982 155.27415039 287.42352051 154.25 286.8125 C152.08632451 285.53580222 149.92224834 284.25978329 147.7578125 282.984375 C146.64180664 282.32501953 145.52580078 281.66566406 144.37597656 280.98632812 C138.9787367 277.81074644 133.55236 274.6862344 128.125 271.5625 C125.94008624 270.30341652 123.75519051 269.04430177 121.5703125 267.78515625 C120.48524414 267.16012207 119.40017578 266.53508789 118.28222656 265.89111328 C112.85340058 262.76319852 107.42680719 259.63141552 102 256.5 C99.83334417 255.24998121 97.6666775 253.99998122 95.5 252.75 C82.5 245.25 69.5 237.75 56.5 230.25 C54.88931641 229.32078735 54.88931641 229.32078735 53.24609375 228.37280273 C51.0923828 227.13023981 48.93873633 225.88756511 46.78515625 224.64477539 C41.76315738 221.74685377 36.74057193 218.84996651 31.71557617 215.95724487 C29.94954478 214.94052802 28.18372569 213.92344342 26.41796875 212.90625 C24.21265845 211.63599127 22.00695784 210.36640982 19.80078125 209.09765625 C1.62512981 198.62512981 1.62512981 198.62512981 0 197 C-0.09775474 194.45803811 -0.12995277 191.94327039 -0.12025452 189.40086365 C-0.12110894 188.59554941 -0.12196337 187.79023517 -0.12284368 186.96051747 C-0.12450095 184.24115297 -0.11897311 181.52184912 -0.11352539 178.80249023 C-0.11324355 176.86148073 -0.1134012 174.92047111 -0.1139679 172.97946167 C-0.11425598 167.69249016 -0.10835756 162.40554112 -0.10139394 157.11857486 C-0.09516214 151.59988947 -0.09455674 146.08120362 -0.09336853 140.56251526 C-0.0902547 130.10420842 -0.08204061 119.64591198 -0.07201904 109.18760973 C-0.06085951 97.28454959 -0.05534786 85.38148897 -0.05032361 73.47842491 C-0.03985804 48.98561083 -0.0222576 24.492806 0 0 Z " fill="#E55B2C" transform="translate(0,395)"/>
<path d="M0 0 C0.21017991 25.58179943 0.36891928 51.1634696 0.46630955 76.74595833 C0.51273032 88.62422664 0.5760247 100.50195869 0.67895508 112.37988281 C0.76861987 122.73191776 0.82671435 133.08356439 0.84679645 143.43597686 C0.85853702 148.91848113 0.88615342 154.39987446 0.95157051 159.88202286 C1.01264285 165.0418523 1.03150838 170.200113 1.01796913 175.36026955 C1.02044601 177.25420342 1.03836222 179.14818951 1.07284927 181.04181099 C1.32102455 195.37105376 1.32102455 195.37105376 -1.960536 199.41752338 C-4.2732378 200.99080831 -6.38887106 202.02286606 -9 203 C-10.04921631 203.63091553 -11.09843262 204.26183105 -12.17944336 204.91186523 C-13.13987549 205.45528564 -14.10030762 205.99870605 -15.08984375 206.55859375 C-16.74040771 207.49650757 -16.74040771 207.49650757 -18.42431641 208.45336914 C-18.99611633 208.77628937 -19.56791626 209.09920959 -20.15704346 209.43191528 C-22.62372725 210.82507455 -25.08609285 212.22579131 -27.54876709 213.62602234 C-28.82350632 214.35075634 -30.09845027 215.07513036 -31.37359619 215.79914856 C-37.64042339 219.35861451 -43.88480067 222.95657496 -50.125 226.5625 C-51.188396 227.17665771 -52.25179199 227.79081543 -53.34741211 228.42358398 C-55.49245574 229.66257782 -57.63739426 230.90175366 -59.78222656 232.14111328 C-65.18670645 235.26324605 -70.59347412 238.38141204 -76 241.5 C-78.1666775 242.74998122 -80.33334417 243.99998121 -82.5 245.25 C-95.5 252.75 -108.5 260.25 -121.5 267.75 C-123.11140869 268.67969604 -123.11140869 268.67969604 -124.75537109 269.62817383 C-126.90404727 270.86774495 -129.05280913 272.10716756 -131.20166016 273.34643555 C-136.28243093 276.27681778 -141.3623065 279.20872063 -146.43914795 282.14590454 C-148.83930101 283.53438027 -151.23994361 284.92200833 -153.640625 286.30957031 C-155.33641618 287.2901883 -157.03149776 288.27203309 -158.7265625 289.25390625 C-159.75265625 289.846875 -160.77875 290.43984375 -161.8359375 291.05078125 C-163.19017822 291.83449097 -163.19017822 291.83449097 -164.57177734 292.6340332 C-166.68835891 293.82469013 -168.82429373 294.92331944 -171 296 C-171.51460686 270.40964478 -171.90219677 244.8200678 -172.13986778 219.22557545 C-172.25317418 207.34043442 -172.40753919 195.45851307 -172.65966797 183.57543945 C-172.87940269 173.21416277 -173.02097954 162.85521744 -173.06994689 152.49167556 C-173.09856514 147.00594078 -173.16544187 141.52687288 -173.32606125 136.04328346 C-174.26659863 102.67333187 -174.26659863 102.67333187 -168.84719849 94.92011261 C-163.74368347 90.2598886 -158.15413046 87.78629719 -151.58761215 85.82579994 C-148.02491648 84.68881584 -145.22575442 82.97934826 -142.078125 80.9765625 C-140.13611511 79.85816133 -138.19341594 78.74095612 -136.25 77.625 C-134.04685608 76.35680371 -131.84373165 75.08857355 -129.640625 73.8203125 C-128.54298828 73.18899414 -127.44535156 72.55767578 -126.31445312 71.90722656 C-120.87349435 68.77635076 -115.43694752 65.63783458 -110 62.5 C-107.83335502 61.24996242 -105.66668834 59.99996244 -103.5 58.75 C-102.4275 58.13125 -101.355 57.5125 -100.25 56.875 C-64.5 36.25 -64.5 36.25 -61.24780273 34.3737793 C-59.08840605 33.1279423 -56.92906331 31.88201182 -54.76977539 30.63598633 C-49.24232403 27.44651047 -43.71384879 24.25883115 -38.18359375 21.07421875 C-35.93487417 19.77868343 -33.68617595 18.48311104 -31.4375 17.1875 C-29.82004883 16.25635376 -29.82004883 16.25635376 -28.16992188 15.30639648 C-23.31758267 12.5088363 -18.47430694 9.69879849 -13.66015625 6.8359375 C-12.86359619 6.36260986 -12.06703613 5.88928223 -11.24633789 5.40161133 C-9.7938606 4.5357448 -8.34365882 3.66604464 -6.89624023 2.79174805 C-2.21802943 0 -2.21802943 0 0 0 Z " fill="#ED8E23" transform="translate(1196,296)"/>
</svg>
